<svg width="23" height="23" viewBox="0 0 23 23" fill="none" xmlns="http://www.w3.org/2000/svg">
<path fill-rule="evenodd" clip-rule="evenodd" d="M19.2124 16.9776C19.9078 15.9994 20.3912 14.9345 20.672 13.8375L18.771 13.3505C18.5483 14.2205 18.1649 15.0651 17.6134 15.8409C15.2069 19.2263 10.5116 20.0199 7.12613 17.6133C3.7407 15.2068 2.94715 10.5115 5.35368 7.12605C7.76022 3.74062 12.4555 2.94707 15.841 5.35361C16.223 5.6252 16.5721 5.92594 16.8872 6.25066L15.6823 7.06453L19.7627 9.25993C19.7085 8.93937 19.7326 5.83047 19.7514 4.31609L18.5336 5.13865C18.0765 4.63165 17.5572 4.1665 16.9776 3.75453C12.709 0.720208 6.78886 1.72077 3.75453 5.98935C0.720208 10.2579 1.72077 16.1781 5.98935 19.2124C10.2579 22.2468 16.1781 21.2462 19.2124 16.9776Z" fill="#D9D9D9"/>
</svg>
