<svg width="185" height="37" viewBox="0 0 185 37" fill="none" xmlns="http://www.w3.org/2000/svg">
<path d="M133.265 3.73373C133.138 4.13728 133.138 4.57751 133.202 4.72426C133.202 4.87101 133.391 5.64142 133.644 6.44852C134.024 7.69586 133.897 7.95266 133.012 7.95266C132.19 7.95266 132 8.13609 132.316 8.68639C132.569 9.2 132.443 9.42012 131.81 9.42012C131.178 9.42012 130.862 9.82367 130.862 10.5941C130.799 11.2544 130.293 12.7219 129.597 13.8225C128.459 15.7302 128.269 15.8402 126.119 15.9503C124.349 16.0237 123.843 16.2438 123.653 16.8675C123.527 17.3077 123.021 17.7112 122.452 17.7846C121.693 17.858 120.934 16.8308 118.974 12.9053L116.507 7.95266H113.852C109.994 7.95266 109.488 8.46627 108.919 12.6118C108.287 18.0414 108.413 17.858 104.493 17.858C101.457 17.858 101.078 17.968 100.825 18.6651C100.572 19.3988 100.572 19.3621 100.446 18.4817C100.382 17.7479 100.066 17.4911 99.1178 17.4911C98.2325 17.4911 97.8531 17.2343 97.8531 16.7207C97.8531 16.1704 97.5369 15.987 96.4619 16.097C95.4501 16.1704 95.0707 16.4272 95.1972 16.8308C95.3236 17.1976 95.0707 17.4911 94.6913 17.4911C94.3751 17.4911 94.0589 17.8947 94.0589 18.4083C94.0589 19.2888 93.8692 19.3254 90.6442 19.3254C87.5457 19.3254 87.1663 19.3988 86.9766 20.1325C86.8501 20.6828 86.281 21.013 85.3957 21.0864C84.4472 21.1598 83.9413 21.4533 83.9413 21.9302C83.9413 22.5905 83.3722 22.6272 69.2707 22.6272C61.1765 22.6272 54.1574 22.4805 53.6515 22.297C52.2604 21.7834 54.9162 20.5728 58.331 20.2059C61.4927 19.8757 62.6942 19.142 60.8604 18.7385C60.2912 18.5917 59.5324 18.7385 59.0898 19.1053C58.5207 19.5822 57.5721 19.729 55.4854 19.6189C51.3751 19.4355 51.4383 18.5917 55.6118 18.555C60.7339 18.4817 56.8765 17.9314 51.3751 17.9314C46.0633 17.9314 41.953 18.4817 46.8221 18.555C50.2368 18.5917 50.6162 18.9953 47.8971 19.5822C46.6956 19.8391 46.0001 20.2426 46.0001 20.7195C46.0001 21.4899 47.3912 22.3704 48.1501 22.0769C48.3398 21.9669 48.2765 22.0769 47.9603 22.297C47.6442 22.5538 44.7986 22.6272 39.9295 22.5172C35.7559 22.4071 31.3927 22.297 30.1912 22.297C28.4839 22.2604 28.2309 22.187 28.9265 21.8935C29.4324 21.7101 30.6339 21.5266 31.5824 21.5266C32.6574 21.5266 33.5427 21.2331 33.9853 20.7929C34.4912 20.2426 35.3133 20.0592 37.4633 20.0592C40.3721 20.0592 41.5736 19.5456 40.3721 18.8485C39.803 18.5183 39.3603 18.555 38.4118 18.8852C36.8942 19.3988 31.4559 19.4722 31.4559 18.9586C31.4559 18.7385 32.7206 18.5917 34.3015 18.5917C35.8824 18.5917 37.1471 18.4083 37.1471 18.2249C37.1471 17.7479 24.0574 17.7479 23.5515 18.1882C23.3618 18.4083 24.5633 18.5917 26.2074 18.6651C29.1794 18.7751 29.1794 18.8118 27.4721 19.2521C26.5236 19.4722 25.575 19.9491 25.3221 20.2793C24.8794 21.013 25.9544 22.1136 27.0294 21.9669C27.4089 21.9302 27.5986 22.0402 27.3456 22.2604C27.1559 22.4438 25.0059 22.6272 22.5397 22.6272H18.1765V23.6911C18.1765 24.5716 18.4927 24.7917 19.7574 24.9018C20.6427 24.9751 21.3383 25.1586 21.3383 25.3787C21.3383 25.5988 17.7338 25.7822 12.1691 25.8556C7.1103 25.8923 3 26.0757 3 26.2225C3 26.4059 3.44265 27.3598 3.94853 28.4237C5.15 30.7349 7.55295 32.4225 10.9044 33.303C13.3074 33.9633 17.1647 34 93.7428 34H174.052L175.127 31.6521C176.202 29.2675 180.375 23.9112 181.387 23.5077C183.221 22.8473 181.071 22.6272 173.166 22.6272C165.768 22.6272 164.313 22.5538 163.997 22.0402C163.428 21.1598 163.428 21.1598 166.653 21.1231L169.625 21.0497L165.831 20.7562C159.128 20.1692 157.61 20.1325 156.219 20.316C154.828 20.4994 154.133 21.5266 155.397 21.5266C155.777 21.5266 156.03 21.7834 156.03 22.0769C156.03 22.5172 155.208 22.6272 152.552 22.6272H149.074V20.6828C149.074 18.0047 148.441 16.0237 147.556 16.0237C147.113 16.0237 146.924 15.5101 147.05 14.5562L147.303 13.0888H144.394C141.422 13.0888 139.272 13.5657 137.944 14.5195C137.375 14.9598 137.122 14.703 136.743 13.1988C136.49 12.1349 136.49 10.9609 136.743 10.5574C136.996 10.0438 136.68 9.42012 135.858 8.72308C135.035 8.06272 134.53 7.0355 134.466 6.04497C134.466 5.20118 134.213 4.13728 133.897 3.73373L133.328 3L133.265 3.73373Z" fill="#E6E6E6" fill-opacity="0.5"/>
</svg>
