<svg width="510" height="102" viewBox="0 0 510 102" fill="none" xmlns="http://www.w3.org/2000/svg">
<path fill-rule="evenodd" clip-rule="evenodd" d="M34 76L21.7966 73C15.8644 70.5 4 63.6 4 56L4 45L4 34C4 26.4 15.8644 19.5 21.7966 17L34 14L59 14L59 10L144.171 9.99999C144.583 8.83495 145.694 7.99999 147 7.99999L147 3.99999C147 3.44775 147.448 2.99999 148 2.99999L155 2.99999C155.552 2.99999 156 3.44775 156 3.99999L156 7.99999L232 7.99999L232 5.99999C232 5.44774 232.448 4.99999 233 4.99999C233.552 4.99999 234 5.44774 234 5.99999L234 7.99999L318 7.99999C319.306 7.99999 320.417 8.83495 320.829 9.99999L335.535 9.99999C336.227 8.80443 337.519 7.99999 339 7.99999L441 7.99998C442.481 7.99998 443.773 8.80442 444.465 9.99998L445.238 9.99998L447.364 4.47166L454.864 4.47166L458.382 9.99998L461 9.99998L461 14L474 14L474 23L483 23C485.209 23 487 24.7908 487 27L487 30L496.5 30C501.747 30 506 34.2532 506 39.5L506 49.5C506 54.7468 501.747 59 496.5 59L487 59L487 63C487 65.2092 485.209 67 483 67L474 67L474 76L461 76L461 80L458.75 80L455 85L447 85L445.8 82L378 82C376.694 82 375.583 81.165 375.171 80L342.829 80C342.417 81.165 341.306 82 340 82L301 82L301 83C301 83.5522 300.552 84 300 84L292 84C291.448 84 291 83.5522 291 83L291 82L289 82L289 83C289 83.5522 288.552 84 288 84L284 84C283.448 84 283 83.5522 283 83L283 82L190 82C188.694 82 187.583 81.165 187.171 80L59 80L59 76L34 76Z" fill="#535353"/>
<rect x="345" y="98" width="22" height="28" transform="rotate(-90 345 98)" fill="#717171"/>
<rect width="22" height="2" transform="matrix(-4.37114e-08 -1 -1 4.37114e-08 347 98)" fill="#E3B261"/>
<rect width="11" height="2" transform="matrix(1 0 0 -1 366 50)" fill="#E3B261"/>
<rect width="11" height="2" transform="matrix(1 0 0 -1 344 50)" fill="#E3B261"/>
<rect width="11" height="2" transform="matrix(1 0 0 -1 322 50)" fill="#E3B261"/>
<rect width="11" height="2" transform="matrix(1 0 0 -1 300 50)" fill="#E3B261"/>
<rect width="11" height="2" transform="matrix(1 0 0 -1 278 50)" fill="#E3B261"/>
<rect width="11" height="2" transform="matrix(1 0 0 -1 256 50)" fill="#E3B261"/>
<rect width="11" height="2" transform="matrix(1 0 0 -1 234 50)" fill="#E3B261"/>
<rect width="11" height="2" transform="matrix(1 0 0 -1 212 50)" fill="#E3B261"/>
<rect width="11" height="2" transform="matrix(1 0 0 -1 190 50)" fill="#E3B261"/>
<rect width="11" height="2" transform="matrix(1 0 0 -1 168 50)" fill="#E3B261"/>
<rect width="11" height="2" transform="matrix(1 0 0 -1 146 50)" fill="#E3B261"/>
<rect width="11" height="2" transform="matrix(1 0 0 -1 124 50)" fill="#E3B261"/>
<rect width="11" height="2" transform="matrix(1 0 0 -1 388 50)" fill="#E3B261"/>
<rect width="11" height="2" transform="matrix(1 0 0 -1 410 50)" fill="#E3B261"/>
<rect width="11" height="2" transform="matrix(1 0 0 -1 102 50)" fill="#E3B261"/>
<rect width="11" height="2" transform="matrix(1 0 0 -1 80 50)" fill="#E3B261"/>
<rect width="11" height="2" transform="matrix(1 0 0 -1 58 50)" fill="#E3B261"/>
<path d="M36 50H47V48H36V50Z" fill="#E3B261"/>
<path d="M14 50L25 50V48H14L14 50Z" fill="#E3B261"/>
<rect width="22" height="2" transform="matrix(-4.37114e-08 -1 -1 4.37114e-08 373 98)" fill="#E3B261"/>
<path fill-rule="evenodd" clip-rule="evenodd" d="M437 54C435.896 54 435 53.1045 435 52L435 37C435 35.8955 435.896 35 437 35L473 35L473 34C473 32.8955 473.896 32 475 32L496 32C499.526 32 502.444 34.6077 502.929 38L503 38L503 39L503 50C503 53.866 499.866 57 496 57L475 57C473.896 57 473 56.1045 473 55L473 54L437 54Z" fill="#D9D9D9"/>
<rect x="436" y="53" width="17" height="41" rx="1" transform="rotate(-90 436 53)" fill="#717171"/>
<rect x="474" y="56" width="23" height="23" rx="1" transform="rotate(-90 474 56)" fill="#717171"/>
<path fill-rule="evenodd" clip-rule="evenodd" d="M8 45L8 44L14 44L14 45L8 45ZM16 44L16 45L22 45L22 44L16 44ZM25 44L25 45L30 45L30 53L32 53L32 30L30 30L30 42.6016L19.9924 32.594L19 33.5864L29.4136 44L25 44ZM11 66L11 64L38 64L38 64.1552L54.8295 73.2399L53.8794 74.9998L37.2072 66L11 66ZM54.7333 17.339L53.7333 15.6069L37.464 25L11 25L11 27L38 27L38 27L54.7333 17.339Z" fill="#D9D9D9"/>
<path d="M185.5 36.5L176.5 21L176.5 15.5L231.5 15.5L352 15.5L352 29.5L334.5 29.5L332 32.5L290 32.5L290 36.5L185.5 36.5Z" fill="#6A6B6B"/>
<path fill-rule="evenodd" clip-rule="evenodd" d="M461 80L59 80L59 78L402 78L402 56L404 56L404 78L461 78L461 80ZM375 72L386 72L386 70L375 70L375 72ZM375 21L386 21L386 19L375 19L375 21ZM401 72L390 72L390 70L401 70L401 72ZM390 21L401 21L401 19L390 19L390 21ZM402 34L404 34L404 12L461 12L461 9.99997L59 9.99997L59 12L402 12L402 34ZM311 34C311 31.7908 309.209 30 307 30C304.791 30 303 31.7908 303 34C303 36.2091 304.791 38 307 38C309.209 38 311 36.2091 311 34ZM283 25C285.209 25 287 26.7908 287 29C287 31.2091 285.209 33 283 33C280.791 33 279 31.2091 279 29C279 26.7908 280.791 25 283 25ZM322 24C322 22.8954 321.105 22 320 22C318.895 22 318 22.8954 318 24C318 25.1046 318.895 26 320 26C321.105 26 322 25.1046 322 24ZM309 13C310.105 13 311 13.8954 311 15C311 16.1046 310.105 17 309 17C307.895 17 307 16.1046 307 15C307 13.8954 307.895 13 309 13ZM297 38C297 36.8954 296.105 36 295 36C293.895 36 293 36.8954 293 38C293 39.1046 293.895 40 295 40C296.105 40 297 39.1046 297 38ZM262 16C263.657 16 265 17.3431 265 19C265 20.6568 263.657 22 262 22C260.343 22 259 20.6568 259 19C259 17.3431 260.343 16 262 16ZM247 25C247 23.3431 245.657 22 244 22C242.343 22 241 23.3431 241 25C241 26.6568 242.343 28 244 28C245.657 28 247 26.6568 247 25ZM192 26C194.209 26 196 27.7909 196 30C196 32.2091 194.209 34 192 34C189.791 34 188 32.2091 188 30C188 27.7909 189.791 26 192 26ZM212 20C212 18.8954 211.105 18 210 18C208.895 18 208 18.8954 208 20C208 21.1046 208.895 22 210 22C211.105 22 212 21.1046 212 20ZM226 23C227.105 23 228 23.8954 228 25C228 26.1046 227.105 27 226 27C224.895 27 224 26.1046 224 25C224 23.8954 224.895 23 226 23ZM461 76L461 62L463 62L480 62L480 57L482 57L482 62L482 64L480 64L463 64L463 76L461 76ZM480 26L463 26L463 14L461 14L461 28L463 28L480 28L480 32L482 32L482 28L482 26L480 26Z" fill="#D9D9D9"/>
<ellipse cx="45.3203" cy="30.8505" rx="2" ry="4" transform="rotate(-48.4621 45.3203 30.8505)" fill="#D9D9D9"/>
<ellipse cx="52.4582" cy="26.5321" rx="2" ry="4" transform="rotate(-24.0845 52.4582 26.5321)" fill="#D9D9D9"/>
<ellipse cx="60.5178" cy="24.768" rx="2" ry="4" transform="rotate(7.69959 60.5178 24.768)" fill="#D9D9D9"/>
<ellipse cx="66.5178" cy="24.768" rx="2" ry="4" transform="rotate(15.1358 66.5178 24.768)" fill="#D9D9D9"/>
<ellipse cx="72.9751" cy="25.6166" rx="2" ry="4" transform="rotate(24.4786 72.9751 25.6166)" fill="#D9D9D9"/>
<ellipse cx="80.4775" cy="25.6166" rx="2" ry="4" transform="rotate(24.4786 80.4775 25.6166)" fill="#D9D9D9"/>
<ellipse cx="88.4775" cy="25.6166" rx="2" ry="4" transform="rotate(24.4786 88.4775 25.6166)" fill="#D9D9D9"/>
<path fill-rule="evenodd" clip-rule="evenodd" d="M148 31C148.83 31.9342 150.178 33.4891 151.076 34.6257C151.027 35.0624 151 35.5234 151 36C151 38.7614 151.895 41 153 41C154.105 41 155 38.7614 155 36C155 35.5234 154.973 35.0624 154.924 34.6257C155.822 33.4891 157.17 31.9342 158 31L158 23L154 26.5L153.244 31.0368C153.164 31.0125 153.083 31 153 31C152.917 31 152.836 31.0125 152.756 31.0368L152 26.5L148 23L148 31Z" fill="#9D9F9F"/>
<path fill-rule="evenodd" clip-rule="evenodd" d="M160 31C160.83 31.9342 162.178 33.4891 163.076 34.6257C163.027 35.0624 163 35.5234 163 36C163 38.7614 163.895 41 165 41C166.105 41 167 38.7614 167 36C167 35.5234 166.973 35.0624 166.924 34.6257C167.822 33.4891 169.17 31.9342 170 31L170 23L166 26.5L165.244 31.0368C165.164 31.0125 165.083 31 165 31C164.917 31 164.836 31.0125 164.756 31.0368L164 26.5L160 23L160 31Z" fill="#9D9F9F"/>
<path d="M426.5 48.5L424.319 46.5L419.5 47.5L420.5 51.5L418.5 52.5L416 47.5L406.5 45L416 42.5L418.5 37.5L420.5 38.5L419.5 42.5L424.319 43.5L426.5 41.5L428.5 41.5L427.5 45L428.5 48.5L426.5 48.5Z" fill="#9BA29E"/>
<path d="M465 48.5L462.819 46.5L458 47.5L459 51.5L457 52.5L454.5 47.5L445 45L454.5 42.5L457 37.5L459 38.5L458 42.5L462.819 43.5L465 41.5L467 41.5L466 45L467 48.5L465 48.5Z" fill="#9BA29E"/>
<path d="M399 48.5L396.819 46.5L392 47.5L393 51.5L391 52.5L388.5 47.5L379 45L388.5 42.5L391 37.5L393 38.5L392 42.5L396.819 43.5L399 41.5L401 41.5L400 45L401 48.5L399 48.5Z" fill="#9BA29E"/>
<path d="M338 68L335.819 66L331 67L332 71L330 72L327.5 67L318 64.5L327.5 62L330 57L332 58L331 62L335.819 63L338 61L340 61L339 64.5L340 68L338 68Z" fill="#9BA29E"/>
<path d="M355.5 97L357.5 94.8188L356.5 90L352.5 91L351.5 89L356.5 86.5L359 77L361.5 86.5L366.5 89L365.5 91L361.5 90L360.5 94.8188L362.5 97L362.5 99L359 98L355.5 99L355.5 97Z" fill="#9BA29E"/>
<path d="M301 68L298.819 66L294 67L295 71L293 72L290.5 67L281 64.5L290.5 62L293 57L295 58L294 62L298.819 63L301 61L303 61L302 64.5L303 68L301 68Z" fill="#9BA29E"/>
<path d="M264 68L261.819 66L257 67L258 71L256 72L253.5 67L244 64.5L253.5 62L256 57L258 58L257 62L261.819 63L264 61L266 61L265 64.5L266 68L264 68Z" fill="#9BA29E"/>
<path d="M463.757 15.0294L460.801 15.1575L458.101 19.272L461.636 21.3934L460.929 23.5147L455.626 21.7469L447.14 26.6967L452.09 18.2114L450.322 12.9081L452.444 12.201L454.565 15.7365L458.68 13.0362L458.808 10.0796L460.222 8.66543L461.99 11.8474L465.172 13.6152L463.757 15.0294Z" fill="#9BA29E"/>
<path d="M458.808 79.7574L458.679 76.8008L454.565 74.1005L452.444 77.636L450.322 76.9289L452.09 71.6256L447.14 63.1404L455.626 68.0901L460.929 66.3223L461.636 68.4437L458.1 70.565L460.801 74.6795L463.757 74.8076L465.171 76.2218L461.99 77.9896L460.222 81.1716L458.808 79.7574Z" fill="#9BA29E"/>
<path d="M439.414 79.7574L439.286 76.8008L435.172 74.1005L433.05 77.636L430.929 76.9289L432.697 71.6256L427.747 63.1404L436.232 68.0901L441.536 66.3223L442.243 68.4437L438.707 70.565L441.407 74.6795L444.364 74.8076L445.778 76.2218L442.596 77.9896L440.828 81.1716L439.414 79.7574Z" fill="#9BA29E"/>
<path d="M401.414 79.7574L401.286 76.8008L397.172 74.1005L395.05 77.636L392.929 76.9289L394.697 71.6256L389.747 63.1404L398.232 68.0901L403.536 66.3223L404.243 68.4437L400.707 70.565L403.407 74.6795L406.364 74.8076L407.778 76.2218L404.596 77.9896L402.828 81.1716L401.414 79.7574Z" fill="#9BA29E"/>
<path d="M420.414 79.7574L420.286 76.8008L416.172 74.1005L414.05 77.636L411.929 76.9289L413.697 71.6256L408.747 63.1404L417.232 68.0901L422.536 66.3223L423.243 68.4437L419.707 70.565L422.407 74.6795L425.364 74.8076L426.778 76.2218L423.596 77.9896L421.828 81.1716L420.414 79.7574Z" fill="#9BA29E"/>
<path d="M444.757 15.0294L441.801 15.1575L439.101 19.272L442.636 21.3934L441.929 23.5147L436.626 21.7469L428.14 26.6967L433.09 18.2114L431.322 12.9081L433.444 12.201L435.565 15.7365L439.68 13.0362L439.808 10.0796L441.222 8.66543L442.99 11.8474L446.172 13.6152L444.757 15.0294Z" fill="#9BA29E"/>
<path d="M425.757 15.0294L422.801 15.1575L420.101 19.272L423.636 21.3934L422.929 23.5147L417.626 21.7469L409.14 26.6967L414.09 18.2114L412.322 12.9081L414.444 12.201L416.565 15.7365L420.68 13.0362L420.808 10.0796L422.222 8.66543L423.99 11.8474L427.172 13.6152L425.757 15.0294Z" fill="#9BA29E"/>
<path d="M406.757 15.0294L403.801 15.1575L401.101 19.272L404.636 21.3934L403.929 23.5147L398.626 21.7469L390.14 26.6967L395.09 18.2114L393.322 12.9081L395.444 12.201L397.565 15.7365L401.68 13.0362L401.808 10.0796L403.222 8.66543L404.99 11.8474L408.172 13.6152L406.757 15.0294Z" fill="#9BA29E"/>
<path d="M387.757 15.0294L384.801 15.1575L382.101 19.272L385.636 21.3934L384.929 23.5147L379.626 21.7469L371.14 26.6967L376.09 18.2114L374.322 12.9081L376.444 12.201L378.565 15.7365L382.68 13.0362L382.808 10.0796L384.222 8.66543L385.99 11.8474L389.172 13.6152L387.757 15.0294Z" fill="#9BA29E"/>
<path d="M368.757 15.0294L365.801 15.1575L363.101 19.272L366.636 21.3934L365.929 23.5147L360.626 21.7469L352.14 26.6967L357.09 18.2114L355.322 12.9081L357.444 12.201L359.565 15.7365L363.68 13.0362L363.808 10.0796L365.222 8.66543L366.99 11.8474L370.172 13.6152L368.757 15.0294Z" fill="#9BA29E"/>
<path fill-rule="evenodd" clip-rule="evenodd" d="M164.842 70.8419L173.658 69.659L164.842 68.6589L159.658 68.6589C158.797 67.7976 157.732 67.1996 156.61 66.8417L158.842 66.8417L158.842 63.8417L149.842 63.8417L149.842 66.8417L151.484 66.8417C150.833 67.0784 150.269 67.4145 149.842 67.842C148.008 67.842 144.342 68.242 144.342 69.842C144.342 71.3692 147.515 71.6513 149.398 71.8187C149.488 71.8267 149.575 71.8345 149.658 71.8421C150.126 72.2702 150.722 72.6067 151.399 72.8417L149.842 72.8417L149.842 75.8417L158.842 75.8417L158.842 72.8417L156.42 72.8417C157.615 72.4647 158.75 71.8093 159.658 70.8419L164.842 70.8419Z" fill="#9A9A9C"/>
<path d="M175.831 72.5001L172.831 72.5001L172.831 65.5001L175.331 65.5001L175.831 72.5001Z" fill="#9A9A9C"/>
<path fill-rule="evenodd" clip-rule="evenodd" d="M116.438 68.6558L122.102 67.8958L116.438 67.2534L113.108 67.2534C112.554 66.7 111.87 66.3159 111.15 66.0859L112.583 66.0859L112.583 64.1586L106.801 64.1586L106.801 66.0859L107.856 66.0859C107.438 66.238 107.076 66.4539 106.801 66.7285C105.623 66.7285 103.268 66.9855 103.268 68.0134C103.268 68.9945 105.306 69.1758 106.516 69.2833L106.683 69.2983C106.984 69.5734 107.367 69.7895 107.802 69.9405L106.801 69.9405L106.801 71.8678L112.583 71.8678L112.583 69.9405L111.027 69.9405C111.795 69.6983 112.524 69.2772 113.108 68.6558L116.438 68.6558Z" fill="#9A9A9C"/>
<path d="M123.498 69.7211L121.57 69.7211L121.57 65.224L123.176 65.224L123.498 69.7211Z" fill="#9A9A9C"/>
<path fill-rule="evenodd" clip-rule="evenodd" d="M86.275 68.6558L91.9392 67.8958L86.275 67.2534L82.9452 67.2534C82.3918 66.7 81.7074 66.3159 80.987 66.0859L82.4204 66.0859L82.4204 64.1586L76.6385 64.1586L76.6385 66.0859L77.6939 66.0859C77.2757 66.238 76.9131 66.4539 76.6385 66.7285C75.4607 66.7285 73.1051 66.9855 73.1051 68.0134C73.1051 68.9945 75.1437 69.1758 76.3535 69.2833L76.5208 69.2983C76.8211 69.5734 77.2044 69.7895 77.639 69.9405L76.6385 69.9405L76.6385 71.8678L82.4204 71.8678L82.4204 69.9405L80.8647 69.9405C81.6322 69.6983 82.3616 69.2772 82.9452 68.6558L86.275 68.6558Z" fill="#9A9A9C"/>
<path d="M93.335 69.7211L91.4077 69.7211L91.4077 65.224L93.0137 65.224L93.335 69.7211Z" fill="#9A9A9C"/>
<path fill-rule="evenodd" clip-rule="evenodd" d="M220.975 70.8419L229.792 69.659L220.975 68.6589L215.792 68.6589C214.931 67.7976 213.866 67.1996 212.744 66.8417L214.975 66.8417L214.975 63.8417L205.975 63.8417L205.975 66.8417L207.618 66.8417C206.967 67.0784 206.403 67.4145 205.975 67.842C204.142 67.842 200.475 68.242 200.475 69.842C200.475 71.3692 203.649 71.6513 205.532 71.8187C205.622 71.8267 205.709 71.8345 205.792 71.8421C206.26 72.2702 206.856 72.6067 207.533 72.8417L205.975 72.8417L205.975 75.8417L214.975 75.8417L214.975 72.8417L212.554 72.8417C213.748 72.4647 214.884 71.8093 215.792 70.8419L220.975 70.8419Z" fill="#9A9A9C"/>
<path d="M231.965 72.5001L228.965 72.5001L228.965 65.5001L231.465 65.5001L231.965 72.5001Z" fill="#9A9A9C"/>
<path fill-rule="evenodd" clip-rule="evenodd" d="M168.389 78.7735L169.387 77.0399L156.384 69.5603L163.864 56.5582L162.13 55.5609L154.651 68.5631L141.558 61.0313L140.561 62.7649L153.654 70.2967L146.122 83.3897L147.855 84.3869L155.387 71.294L168.389 78.7735Z" fill="#9A9A9C"/>
<path fill-rule="evenodd" clip-rule="evenodd" d="M118.717 73.7513L119.358 72.6376L111.004 67.8324L115.81 59.4794L114.696 58.8388L109.891 67.1918L101.479 62.3531L100.839 63.4669L109.25 68.3055L104.411 76.7169L105.525 77.3576L110.364 68.9462L118.717 73.7513Z" fill="#9A9A9C"/>
<path fill-rule="evenodd" clip-rule="evenodd" d="M82.857 77.9852L84.0651 77.5478L80.7845 68.4868L89.8454 65.2063L89.408 63.9982L80.3471 67.2787L77.0437 58.1546L75.8355 58.592L79.139 67.7161L70.0148 71.0196L70.4522 72.2277L79.5764 68.9242L82.857 77.9852Z" fill="#9A9A9C"/>
<path fill-rule="evenodd" clip-rule="evenodd" d="M216.947 84.92L218.763 84.082L212.478 70.4624L226.097 64.1769L225.259 62.361L211.64 68.6464L205.31 54.9317L203.494 55.7698L209.824 69.4845L196.109 75.8138L196.947 77.6298L210.662 71.3004L216.947 84.92Z" fill="#9A9A9C"/>
</svg>
