<svg width="148" height="37" viewBox="0 0 148 37" fill="none" xmlns="http://www.w3.org/2000/svg">
<path d="M106.532 3.45053C106.532 3.85297 106.532 4.95056 106.582 5.93839C106.632 7.2189 106.432 7.73111 105.882 7.87746C105.431 7.98721 105.231 8.24332 105.381 8.42625C105.531 8.60918 105.281 8.86528 104.881 8.97504C104.431 9.0848 104.081 9.48725 104.081 9.85311C104.081 11.0239 101.98 14.6093 101.28 14.6093C100.829 14.6093 100.579 13.9874 100.479 12.6702L100.329 10.7678H93.8263L93.9764 12.6337C94.1265 14.0971 93.9764 14.5727 93.3761 14.7191C92.8759 14.8654 92.5758 15.4142 92.5758 16.2557V17.5362H81.0707V22.6583H15.0418V23.5729C15.0418 24.3047 15.292 24.4876 16.2924 24.4876C17.0927 24.4876 17.5429 24.7071 17.5429 25.0364C17.5429 25.512 16.3924 25.5852 10.2898 25.5852C2.08617 25.5852 2.33628 25.4754 3.78692 28.4755C4.83738 30.7072 6.33803 32.0609 8.68906 33.0122L10.79 33.8171L74.918 33.9268L139.096 34L139.396 33.0122C140.097 30.6707 141.347 28.1828 143.048 25.7681C144.048 24.3412 144.899 23.0973 144.999 22.951C145.099 22.8046 139.346 22.6217 132.243 22.5851L119.337 22.4753L119.237 21.0119C118.937 17.463 118.487 15.7069 117.937 15.7069C117.487 15.7069 117.387 15.2313 117.487 14.2435L117.687 12.78H115.186C113.685 12.78 112.484 12.9629 112.234 13.2556C112.034 13.5117 111.234 13.9142 110.484 14.1337C109.683 14.3898 109.083 14.8288 109.083 15.1581C109.083 15.4508 108.833 15.7069 108.533 15.7069C108.183 15.7069 108.033 14.4996 108.033 12.1215C108.083 7.62135 107.632 3.56028 107.032 3.08466C106.732 2.90173 106.582 3.01149 106.532 3.45053Z" fill="#E6E6E6" fill-opacity="0.5"/>
</svg>
