<svg width="408" height="102" viewBox="0 0 408 102" fill="none" xmlns="http://www.w3.org/2000/svg">
<path fill-rule="evenodd" clip-rule="evenodd" d="M401.963 73.9295C399.16 77.9422 394.788 79.9008 392.952 80.3785C372.596 84.9166 327.076 93.993 307.854 93.993L211.242 93.993C175.367 94.2318 85.4959 88.2606 13.0119 62.4646C9.67465 61.2704 3.00024 57.3056 3.00024 50.9999L276.131 50.9998L3.00024 50.9997C3.00024 44.6941 9.67465 40.7292 13.0119 39.535C85.4959 13.7391 175.367 7.76781 211.242 8.00667L307.854 8.00666C327.076 8.00666 372.596 17.083 392.952 21.6212C394.788 22.0989 399.16 24.0575 401.963 28.0702C404.766 32.0828 405.133 45.0285 404.966 50.9998C405.133 56.9711 404.766 69.9168 401.963 73.9295Z" fill="#6E5F42"/>
<circle cx="394" cy="50.9999" r="4" transform="rotate(-90 394 50.9999)" fill="#797474"/>
<rect x="369" y="75.9999" width="10" height="10" transform="rotate(-90 369 75.9999)" fill="#8B7864"/>
<rect x="370" y="74.9999" width="8" height="3" transform="rotate(-90 370 74.9999)" fill="#68583F"/>
<rect x="374" y="74.9999" width="8" height="3" transform="rotate(-90 374 74.9999)" fill="#68583F"/>
<rect x="368" y="71.9999" width="2" height="21" transform="rotate(-90 368 71.9999)" fill="#958A82"/>
<rect x="389" y="72.9999" width="4" height="4" transform="rotate(-90 389 72.9999)" fill="#ADB7BC"/>
<rect x="369" y="35.9999" width="10" height="10" transform="rotate(-90 369 35.9999)" fill="#8B7864"/>
<rect x="370" y="34.9999" width="8" height="3" transform="rotate(-90 370 34.9999)" fill="#68583F"/>
<rect x="374" y="34.9999" width="8" height="3" transform="rotate(-90 374 34.9999)" fill="#68583F"/>
<rect x="368" y="31.9999" width="2" height="21" transform="rotate(-90 368 31.9999)" fill="#958A82"/>
<rect x="389" y="32.9999" width="4" height="4" transform="rotate(-90 389 32.9999)" fill="#ADB7BC"/>
<rect x="366.222" y="55.9999" width="10" height="8.88889" rx="1" transform="rotate(-90 366.222 55.9999)" fill="#574533"/>
<rect x="364" y="54.8888" width="7.77778" height="10" rx="2" transform="rotate(-90 364 54.8888)" fill="#C8D0D8"/>
<rect x="370.667" y="54.8888" width="3.33333" height="3.33333" transform="rotate(-90 370.667 54.8888)" fill="#929090"/>
<rect x="370.667" y="50.4443" width="3.33333" height="3.33333" transform="rotate(-90 370.667 50.4443)" fill="#929090"/>
<rect x="366.222" y="52.6665" width="3.33333" height="3.33333" transform="rotate(-90 366.222 52.6665)" fill="#959FAC"/>
<circle cx="189.5" cy="51.4999" r="36.5" transform="rotate(-90 189.5 51.4999)" fill="#776D55"/>
<circle cx="118.5" cy="51.4999" r="28.5" transform="rotate(-90 118.5 51.4999)" fill="#776D55"/>
<rect x="325" y="89.9999" width="9" height="8" rx="1" transform="rotate(-90 325 89.9999)" fill="#574533"/>
<rect x="323" y="88.9999" width="7" height="9" rx="2" transform="rotate(-90 323 88.9999)" fill="#C8D0D8"/>
<rect x="329" y="88.9999" width="3" height="3" transform="rotate(-90 329 88.9999)" fill="#929090"/>
<rect x="329" y="84.9999" width="3" height="3" transform="rotate(-90 329 84.9999)" fill="#929090"/>
<rect x="325" y="86.9999" width="3" height="3" transform="rotate(-90 325 86.9999)" fill="#959FAC"/>
<path d="M282 89.9999C280.343 89.9999 279 88.6567 279 86.9999L279 84.9999C279 83.343 280.343 81.9999 282 81.9999L287 81.9999L287 89.9999L282 89.9999Z" fill="#C3C6D2"/>
<path d="M286 88.9999C284.896 88.9999 284 88.1044 284 86.9999L284 84.9999C284 83.8953 284.896 82.9999 286 82.9999L288 82.9999L288 88.9999L286 88.9999Z" fill="#898E95"/>
<rect x="286" y="87.9999" width="1" height="6" transform="rotate(-90 286 87.9999)" fill="#736750"/>
<rect x="286" y="84.9999" width="1" height="6" transform="rotate(-90 286 84.9999)" fill="#736750"/>
<path d="M256 81.9999C257.657 81.9999 259 83.343 259 84.9999L259 86.9999C259 88.6567 257.657 89.9999 256 89.9999L251 89.9999L251 81.9999L256 81.9999Z" fill="#C3C6D2"/>
<path d="M252 82.9999C253.105 82.9999 254 83.8953 254 84.9999L254 86.9999C254 88.1044 253.105 88.9999 252 88.9999L250 88.9999L250 82.9999L252 82.9999Z" fill="#898E95"/>
<rect x="252" y="83.9999" width="1" height="6" transform="rotate(90 252 83.9999)" fill="#736750"/>
<rect x="252" y="86.9999" width="1" height="6" transform="rotate(90 252 86.9999)" fill="#736750"/>
<path d="M220 81.9999C221.657 81.9999 223 83.343 223 84.9999L223 86.9999C223 88.6567 221.657 89.9999 220 89.9999L215 89.9999L215 81.9999L220 81.9999Z" fill="#C3C6D2"/>
<path d="M216 82.9999C217.105 82.9999 218 83.8953 218 84.9999L218 86.9999C218 88.1044 217.105 88.9999 216 88.9999L214 88.9999L214 82.9999L216 82.9999Z" fill="#898E95"/>
<rect x="216" y="83.9999" width="1" height="6" transform="rotate(90 216 83.9999)" fill="#736750"/>
<rect x="216" y="86.9999" width="1" height="6" transform="rotate(90 216 86.9999)" fill="#736750"/>
<path d="M306.701 92.9999C297.921 92.9999 291.909 90.9999 290 89.9999L320.061 89.9999L320.061 91.9999C315.48 92.7999 309.245 92.9999 306.701 92.9999Z" fill="#C1C7CC"/>
<path d="M306.701 86.9999C297.921 86.9999 291.909 88.9999 290 89.9999L320.061 89.9999L320.061 87.9999C315.48 87.1999 309.245 86.9999 306.701 86.9999Z" fill="#C1C7CC"/>
<path fill-rule="evenodd" clip-rule="evenodd" d="M299.394 92.5155C301.539 92.8089 303.988 92.9999 306.701 92.9999C309.246 92.9999 315.48 92.7999 320.061 91.9999L320.061 89.9999L299.394 89.9999L299.394 92.5155Z" fill="#7D8080"/>
<path fill-rule="evenodd" clip-rule="evenodd" d="M299.394 87.4842C301.539 87.1908 303.988 86.9999 306.701 86.9999C309.246 86.9999 315.48 87.1999 320.061 87.9999L320.061 89.9999L299.394 89.9999L299.394 87.4842Z" fill="#7D8080"/>
<path fill-rule="evenodd" clip-rule="evenodd" d="M307.849 92.0001C310.815 91.9665 316.067 91.8053 320.061 91.3394L320.061 90.0036L307.849 90.0036L307.849 92.0001Z" fill="#6D6561"/>
<path fill-rule="evenodd" clip-rule="evenodd" d="M307.849 87.9995C310.815 88.0333 316.067 88.1951 320.061 88.6626L320.061 90.0032L307.849 90.0032L307.849 87.9995Z" fill="#6D6561"/>
<ellipse cx="307.849" cy="90" rx="2" ry="1.87879" transform="rotate(-90 307.849 90)" fill="#6D6561"/>
<rect x="318.182" y="92" width="4" height="2.81818" transform="rotate(-90 318.182 92)" fill="#C8CDCF"/>
<path d="M306.701 84.9999C297.921 84.9999 291.909 82.9999 290 81.9999L320.061 81.9999L320.061 83.9999C315.48 84.7999 309.245 84.9999 306.701 84.9999Z" fill="#C1C7CC"/>
<path d="M306.701 78.9999C297.921 78.9999 291.909 80.9999 290 81.9999L320.061 81.9999L320.061 79.9999C315.48 79.1999 309.245 78.9999 306.701 78.9999Z" fill="#C1C7CC"/>
<path fill-rule="evenodd" clip-rule="evenodd" d="M299.394 84.5155C301.539 84.8089 303.988 84.9999 306.701 84.9999C309.246 84.9999 315.48 84.7999 320.061 83.9999L320.061 81.9999L299.394 81.9999L299.394 84.5155Z" fill="#7D8080"/>
<path fill-rule="evenodd" clip-rule="evenodd" d="M299.394 79.4842C301.539 79.1908 303.988 78.9999 306.701 78.9999C309.246 78.9999 315.48 79.1999 320.061 79.9999L320.061 81.9999L299.394 81.9999L299.394 79.4842Z" fill="#7D8080"/>
<path fill-rule="evenodd" clip-rule="evenodd" d="M307.849 84.0001C310.815 83.9665 316.067 83.8053 320.061 83.3394L320.061 82.0036L307.849 82.0036L307.849 84.0001Z" fill="#6D6561"/>
<path fill-rule="evenodd" clip-rule="evenodd" d="M307.849 79.9995C310.815 80.0333 316.067 80.1951 320.061 80.6626L320.061 82.0032L307.849 82.0032L307.849 79.9995Z" fill="#6D6561"/>
<ellipse cx="307.849" cy="82" rx="2" ry="1.87879" transform="rotate(-90 307.849 82)" fill="#6D6561"/>
<rect x="318.182" y="84" width="4" height="2.81818" transform="rotate(-90 318.182 84)" fill="#C8CDCF"/>
<circle cx="293.5" cy="74.4999" r="3.5" transform="rotate(-90 293.5 74.4999)" fill="#8B9097"/>
<rect x="295" y="75.9999" width="3" height="15" transform="rotate(-90 295 75.9999)" fill="#B0B3B2"/>
<rect x="309" y="74.9999" width="1" height="17" transform="rotate(-90 309 74.9999)" fill="#B0B3B2"/>
<circle cx="294.5" cy="74.4999" r="1.5" transform="rotate(-90 294.5 74.4999)" fill="#B0B3B2"/>
<rect x="325" y="20.9999" width="9" height="8" rx="1" transform="rotate(-90 325 20.9999)" fill="#574533"/>
<rect x="323" y="19.9999" width="7" height="9" rx="2" transform="rotate(-90 323 19.9999)" fill="#C8D0D8"/>
<rect x="329" y="19.9999" width="3" height="3" transform="rotate(-90 329 19.9999)" fill="#929090"/>
<rect x="329" y="15.9999" width="3" height="3" transform="rotate(-90 329 15.9999)" fill="#929090"/>
<rect x="325" y="17.9999" width="3" height="3" transform="rotate(-90 325 17.9999)" fill="#959FAC"/>
<path d="M256 10.9999C257.657 10.9999 259 12.343 259 13.9999L259 15.9999C259 17.6567 257.657 18.9999 256 18.9999L251 18.9999L251 10.9999L256 10.9999Z" fill="#C3C6D2"/>
<path d="M252 11.9999C253.105 11.9999 254 12.8953 254 13.9999L254 15.9999C254 17.1044 253.105 17.9999 252 17.9999L250 17.9999L250 11.9999L252 11.9999Z" fill="#898E95"/>
<rect x="252" y="12.9999" width="1" height="6" transform="rotate(90 252 12.9999)" fill="#736750"/>
<rect x="252" y="15.9999" width="1" height="6" transform="rotate(90 252 15.9999)" fill="#736750"/>
<path d="M220 10.9999C221.657 10.9999 223 12.343 223 13.9999L223 15.9999C223 17.6567 221.657 18.9999 220 18.9999L215 18.9999L215 10.9999L220 10.9999Z" fill="#C3C6D2"/>
<path d="M216 11.9999C217.105 11.9999 218 12.8953 218 13.9999L218 15.9999C218 17.1044 217.105 17.9999 216 17.9999L214 17.9999L214 11.9999L216 11.9999Z" fill="#898E95"/>
<rect x="216" y="12.9999" width="1" height="6" transform="rotate(90 216 12.9999)" fill="#736750"/>
<rect x="216" y="15.9999" width="1" height="6" transform="rotate(90 216 15.9999)" fill="#736750"/>
<path d="M282 18.9999C280.343 18.9999 279 17.6567 279 15.9999L279 13.9999C279 12.343 280.343 10.9999 282 10.9999L287 10.9999L287 18.9999L282 18.9999Z" fill="#C3C6D2"/>
<path d="M286 17.9999C284.896 17.9999 284 17.1044 284 15.9999L284 13.9999C284 12.8953 284.896 11.9999 286 11.9999L288 11.9999L288 17.9999L286 17.9999Z" fill="#898E95"/>
<rect x="286" y="16.9999" width="1" height="6" transform="rotate(-90 286 16.9999)" fill="#736750"/>
<rect x="286" y="13.9999" width="1" height="6" transform="rotate(-90 286 13.9999)" fill="#736750"/>
<path d="M306.701 22.9999C297.921 22.9999 291.909 20.9999 290 19.9999L320.061 19.9999L320.061 21.9999C315.48 22.7999 309.245 22.9999 306.701 22.9999Z" fill="#C1C7CC"/>
<path d="M306.701 16.9999C297.921 16.9999 291.909 18.9999 290 19.9999L320.061 19.9999L320.061 17.9999C315.48 17.1999 309.245 16.9999 306.701 16.9999Z" fill="#C1C7CC"/>
<path fill-rule="evenodd" clip-rule="evenodd" d="M299.394 22.5155C301.539 22.8089 303.988 22.9999 306.701 22.9999C309.246 22.9999 315.48 22.7999 320.061 21.9999L320.061 19.9999L299.394 19.9999L299.394 22.5155Z" fill="#7D8080"/>
<path fill-rule="evenodd" clip-rule="evenodd" d="M299.394 17.4842C301.539 17.1908 303.988 16.9999 306.701 16.9999C309.246 16.9999 315.48 17.1999 320.061 17.9999L320.061 19.9999L299.394 19.9999L299.394 17.4842Z" fill="#7D8080"/>
<path fill-rule="evenodd" clip-rule="evenodd" d="M307.849 22.0001C310.815 21.9665 316.067 21.8053 320.061 21.3394L320.061 20.0036L307.849 20.0036L307.849 22.0001Z" fill="#6D6561"/>
<path fill-rule="evenodd" clip-rule="evenodd" d="M307.849 17.9995C310.815 18.0333 316.067 18.1951 320.061 18.6626L320.061 20.0032L307.849 20.0032L307.849 17.9995Z" fill="#6D6561"/>
<ellipse cx="307.849" cy="20" rx="2" ry="1.87879" transform="rotate(-90 307.849 20)" fill="#6D6561"/>
<rect x="318.182" y="22" width="4" height="2.81818" transform="rotate(-90 318.182 22)" fill="#C8CDCF"/>
<path d="M306.701 14.9999C297.921 14.9999 291.909 12.9999 290 11.9999L320.061 11.9999L320.061 13.9999C315.48 14.7999 309.245 14.9999 306.701 14.9999Z" fill="#C1C7CC"/>
<path d="M306.701 8.99988C297.921 8.99988 291.909 10.9999 290 11.9999L320.061 11.9999L320.061 9.99988C315.48 9.19988 309.245 8.99988 306.701 8.99988Z" fill="#C1C7CC"/>
<path fill-rule="evenodd" clip-rule="evenodd" d="M299.394 14.5155C301.539 14.8089 303.988 14.9999 306.701 14.9999C309.246 14.9999 315.48 14.7999 320.061 13.9999L320.061 11.9999L299.394 11.9999L299.394 14.5155Z" fill="#7D8080"/>
<path fill-rule="evenodd" clip-rule="evenodd" d="M299.394 9.48424C301.539 9.19083 303.988 8.99988 306.701 8.99988C309.246 8.99988 315.48 9.19988 320.061 9.99988L320.061 11.9999L299.394 11.9999L299.394 9.48424Z" fill="#7D8080"/>
<path fill-rule="evenodd" clip-rule="evenodd" d="M307.849 14.0001C310.815 13.9665 316.067 13.8053 320.061 13.3394L320.061 12.0036L307.849 12.0036L307.849 14.0001Z" fill="#6D6561"/>
<path fill-rule="evenodd" clip-rule="evenodd" d="M307.849 9.99951C310.815 10.0333 316.067 10.1951 320.061 10.6626L320.061 12.0032L307.849 12.0032L307.849 9.99951Z" fill="#6D6561"/>
<ellipse cx="307.849" cy="12" rx="2" ry="1.87879" transform="rotate(-90 307.849 12)" fill="#6D6561"/>
<rect x="318.182" y="14" width="4" height="2.81818" transform="rotate(-90 318.182 14)" fill="#C8CDCF"/>
<circle cx="293.5" cy="27.4999" r="3.5" transform="rotate(-90 293.5 27.4999)" fill="#8B9097"/>
<rect x="295" y="28.9999" width="3" height="15" transform="rotate(-90 295 28.9999)" fill="#B0B3B2"/>
<rect x="309" y="27.9999" width="1" height="17" transform="rotate(-90 309 27.9999)" fill="#B0B3B2"/>
<circle cx="294.5" cy="27.4999" r="1.5" transform="rotate(-90 294.5 27.4999)" fill="#B0B3B2"/>
<rect x="340" y="81.9999" width="3" height="4" transform="rotate(-90 340 81.9999)" fill="#9F9381"/>
<rect x="340" y="22.9999" width="3" height="4" transform="rotate(-90 340 22.9999)" fill="#9F9381"/>
<rect x="357" y="81.9999" width="3" height="4" transform="rotate(-90 357 81.9999)" fill="#9F9381"/>
<rect x="357" y="22.9999" width="3" height="4" transform="rotate(-90 357 22.9999)" fill="#9F9381"/>
<path d="M266 68.9999C264.343 68.9999 263 67.6567 263 65.9999L263 63.9999C263 62.343 264.343 60.9999 266 60.9999L271 60.9999L271 68.9999L266 68.9999Z" fill="#C3C6D2"/>
<path d="M270 67.9999C268.896 67.9999 268 67.1044 268 65.9999L268 63.9999C268 62.8953 268.896 61.9999 270 61.9999L272 61.9999L272 67.9999L270 67.9999Z" fill="#898E95"/>
<rect x="270" y="66.9999" width="1" height="6" transform="rotate(-90 270 66.9999)" fill="#736750"/>
<rect x="270" y="63.9999" width="1" height="6" transform="rotate(-90 270 63.9999)" fill="#736750"/>
<path d="M266 41.9999C264.343 41.9999 263 40.6567 263 38.9999L263 36.9999C263 35.343 264.343 33.9999 266 33.9999L271 33.9999L271 41.9999L266 41.9999Z" fill="#C3C6D2"/>
<path d="M270 40.9999C268.896 40.9999 268 40.1044 268 38.9999L268 36.9999C268 35.8953 268.896 34.9999 270 34.9999L272 34.9999L272 40.9999L270 40.9999Z" fill="#898E95"/>
<rect x="270" y="39.9999" width="1" height="6" transform="rotate(-90 270 39.9999)" fill="#736750"/>
<rect x="270" y="36.9999" width="1" height="6" transform="rotate(-90 270 36.9999)" fill="#736750"/>
<circle cx="268.5" cy="63.4999" r="15.5" transform="rotate(-90 268.5 63.4999)" fill="#D9D9D9"/>
<circle cx="268.5" cy="38.4999" r="15.5" transform="rotate(-90 268.5 38.4999)" fill="#D9D9D9"/>
<circle cx="236.5" cy="63.4999" r="15.5" transform="rotate(-90 236.5 63.4999)" fill="#D9D9D9"/>
<circle cx="236.5" cy="38.4999" r="15.5" transform="rotate(-90 236.5 38.4999)" fill="#D9D9D9"/>
<rect x="350" y="54.9999" width="1.14286" height="7" transform="rotate(-90 350 54.9999)" fill="#D9D9D9"/>
<rect x="350" y="48.1427" width="1.14286" height="7" transform="rotate(-90 350 48.1427)" fill="#D9D9D9"/>
<rect x="350" y="51.5713" width="1.14286" height="7" transform="rotate(-90 350 51.5713)" fill="#D9D9D9"/>
<rect x="339.976" y="58.7357" width="7" height="21.1491" transform="rotate(-66.9989 339.976 58.7357)" fill="#D9D9D9"/>
<rect x="342.836" y="49.9999" width="7" height="21.1491" transform="rotate(-113.894 342.836 49.9999)" fill="#D9D9D9"/>
<rect x="358" y="68.9999" width="9" height="8" rx="1" transform="rotate(-90 358 68.9999)" fill="#574533"/>
<rect x="356" y="67.9999" width="7" height="9" rx="2" transform="rotate(-90 356 67.9999)" fill="#C8D0D8"/>
<rect x="362" y="67.9999" width="3" height="3" transform="rotate(-90 362 67.9999)" fill="#929090"/>
<rect x="362" y="63.9999" width="3" height="3" transform="rotate(-90 362 63.9999)" fill="#929090"/>
<rect x="358" y="65.9999" width="3" height="3" transform="rotate(-90 358 65.9999)" fill="#959FAC"/>
<rect x="358" y="41.9999" width="9" height="8" rx="1" transform="rotate(-90 358 41.9999)" fill="#574533"/>
<rect x="356" y="40.9999" width="7" height="9" rx="2" transform="rotate(-90 356 40.9999)" fill="#C8D0D8"/>
<rect x="362" y="40.9999" width="3" height="3" transform="rotate(-90 362 40.9999)" fill="#929090"/>
<rect x="362" y="36.9999" width="3" height="3" transform="rotate(-90 362 36.9999)" fill="#929090"/>
<rect x="358" y="38.9999" width="3" height="3" transform="rotate(-90 358 38.9999)" fill="#959FAC"/>
<path d="M202 70.9999L202 51.4999L202 30.9999L288 30.9999L288 70.9999L202 70.9999Z" fill="#5E4F38"/>
<rect x="288" y="67.9999" width="34" height="33" transform="rotate(-90 288 67.9999)" fill="#5E4F38"/>
<rect x="321" y="64.9999" width="28" height="16" transform="rotate(-90 321 64.9999)" fill="#5E4F38"/>
<path d="M325 64.9999L321 67.9999L316.5 67.9999L316.5 33.9999L321 33.9999L325 36.9999L325 64.9999Z" fill="#5E4F38"/>
<path d="M350.5 55.4999L337 64.9999L337 36.9999L350.5 46.4999L350.5 55.4999Z" fill="#5E4F38"/>
<rect x="337" y="56.9999" width="12" height="7" transform="rotate(-90 337 56.9999)" fill="#C9D5E3"/>
<path d="M331 54.9999L337 56.9999L337 50.9999L331 50.9999L331 54.9999Z" fill="#C1CAD6"/>
<path d="M331 46.9999L337 44.9999L337 50.9999L331 50.9999L331 46.9999Z" fill="#C1CAD6"/>
<rect x="341" y="55.9999" width="10" height="3" transform="rotate(-90 341 55.9999)" fill="#84888D"/>
<rect x="342" y="51.9999" width="2" height="14" transform="rotate(-90 342 51.9999)" fill="#D9D9D9"/>
<rect x="342" y="48.9999" width="2" height="14" transform="rotate(-90 342 48.9999)" fill="#D9D9D9"/>
<rect x="342" y="54.9999" width="2" height="14" transform="rotate(-90 342 54.9999)" fill="#D9D9D9"/>
<rect x="275" y="69.9999" width="37" height="10" transform="rotate(-90 275 69.9999)" fill="#B0B3B5"/>
<rect x="277" y="59.9999" width="17" height="47" rx="6" transform="rotate(-90 277 59.9999)" fill="#B0B3B5"/>
<rect x="278" y="58.9999" width="15" height="45" rx="5" transform="rotate(-90 278 58.9999)" fill="#6D5A3E"/>
<rect x="276" y="68.9999" width="35" height="8" transform="rotate(-90 276 68.9999)" fill="#6D5A3E"/>
<rect x="276" y="64.9999" width="1" height="8" transform="rotate(-90 276 64.9999)" fill="#B0B3B5"/>
<rect x="276" y="38.9999" width="1" height="8" transform="rotate(-90 276 38.9999)" fill="#B0B3B5"/>
<rect x="280" y="33.9999" width="1" height="36" fill="#B0B3B5"/>
<rect x="295" y="45.9999" width="1" height="11" fill="#B0B3B5"/>
<rect x="300" y="45.9999" width="1" height="11" fill="#B0B3B5"/>
<rect x="305" y="45.9999" width="1" height="11" fill="#B0B3B5"/>
<rect x="306" y="55.9999" width="1" height="11" transform="rotate(90 306 55.9999)" fill="#B0B3B5"/>
<rect x="306" y="45.9999" width="1" height="11" transform="rotate(90 306 45.9999)" fill="#B0B3B5"/>
<circle cx="289.5" cy="51.4999" r="3.5" transform="rotate(-90 289.5 51.4999)" fill="#B0B3B5"/>
<rect x="315" y="56.9999" width="12" height="7" transform="rotate(-90 315 56.9999)" fill="#C9D5E3"/>
<path d="M309 54.9999L315 56.9999L315 50.9999L309 50.9999L309 54.9999Z" fill="#C1CAD6"/>
<path d="M309 46.9999L315 44.9999L315 50.9999L309 50.9999L309 46.9999Z" fill="#C1CAD6"/>
<rect x="319" y="55.9999" width="10" height="3" transform="rotate(-90 319 55.9999)" fill="#84888D"/>
<rect x="320" y="51.9999" width="2" height="14" transform="rotate(-90 320 51.9999)" fill="#D9D9D9"/>
<rect x="320" y="48.9999" width="2" height="14" transform="rotate(-90 320 48.9999)" fill="#D9D9D9"/>
<rect x="320" y="54.9999" width="2" height="14" transform="rotate(-90 320 54.9999)" fill="#D9D9D9"/>
<rect x="208" y="44.9999" width="12" height="7" transform="rotate(90 208 44.9999)" fill="#C9D5E3"/>
<path d="M214 46.9999L208 44.9999L208 50.9999L214 50.9999L214 46.9999Z" fill="#C1CAD6"/>
<path d="M214 54.9999L208 56.9999L208 50.9999L214 50.9999L214 54.9999Z" fill="#C1CAD6"/>
<rect x="204" y="45.9999" width="10" height="3" transform="rotate(90 204 45.9999)" fill="#84888D"/>
<rect x="203" y="49.9999" width="2" height="14" transform="rotate(90 203 49.9999)" fill="#D9D9D9"/>
<rect x="203" y="52.9999" width="2" height="14" transform="rotate(90 203 52.9999)" fill="#D9D9D9"/>
<rect x="203" y="46.9999" width="2" height="14" transform="rotate(90 203 46.9999)" fill="#D9D9D9"/>
<rect x="290" y="51.9999" width="1" height="36" transform="rotate(-90 290 51.9999)" fill="#4E4432"/>
<path d="M229 61.9999L218.5 55.4999L218.5 44.4999L228 39.4999L239.5 39.4999C241.5 39.4999 239 61.9999 239.5 61.9999L229 61.9999Z" fill="#848484"/>
<rect x="221" y="53.9999" width="7" height="4" transform="rotate(-90 221 53.9999)" fill="#88929B"/>
<circle cx="231" cy="55.9999" r="3" transform="rotate(-90 231 55.9999)" fill="#6A6E71"/>
<circle cx="237" cy="59.9999" r="4" transform="rotate(-90 237 59.9999)" fill="#717477"/>
<circle cx="238" cy="51.9999" r="3" transform="rotate(-90 238 51.9999)" fill="#717477"/>
<circle cx="237" cy="39.9999" r="4" transform="rotate(-90 237 39.9999)" fill="#717477"/>
<circle cx="231" cy="44.9999" r="3" transform="rotate(-90 231 44.9999)" fill="#6A6E71"/>
<circle cx="231" cy="55.9999" r="2" transform="rotate(-90 231 55.9999)" fill="#8D9197"/>
<circle cx="231" cy="44.9999" r="2" transform="rotate(-90 231 44.9999)" fill="#8D9197"/>
<circle cx="265" cy="59.9999" r="3" transform="rotate(-90 265 59.9999)" fill="#7F7974"/>
<circle cx="265" cy="42.9999" r="3" transform="rotate(-90 265 42.9999)" fill="#7F7974"/>
<rect x="265" y="58.9999" width="15" height="14" transform="rotate(-90 265 58.9999)" fill="#9B9DA4"/>
<rect x="268" y="57.9999" width="13" height="12" transform="rotate(-90 268 57.9999)" fill="#1F1E21"/>
<rect x="245" y="57.9999" width="13" height="12" transform="rotate(-90 245 57.9999)" fill="#1F1E21"/>
<circle cx="247" cy="51.9999" r="6" transform="rotate(-90 247 51.9999)" fill="#737372"/>
<rect x="236" y="50.1285" width="5" height="20.699" transform="rotate(-51.5498 236 50.1285)" fill="#CACAC8"/>
<circle cx="268.5" cy="51.4999" r="1.5" transform="rotate(-90 268.5 51.4999)" fill="#A6A6AF"/>
<path d="M266 69.9999C264.343 69.9999 263 68.6567 263 66.9999L263 64.9999C263 63.343 264.343 61.9999 266 61.9999L271 61.9999L271 69.9999L266 69.9999Z" fill="#C3C6D2"/>
<path d="M270 68.9999C268.896 68.9999 268 68.1044 268 66.9999L268 64.9999C268 63.8953 268.896 62.9999 270 62.9999L272 62.9999L272 68.9999L270 68.9999Z" fill="#898E95"/>
<rect x="270" y="67.9999" width="1" height="6" transform="rotate(-90 270 67.9999)" fill="#736750"/>
<rect x="270" y="64.9999" width="1" height="6" transform="rotate(-90 270 64.9999)" fill="#736750"/>
<path d="M266 40.9999C264.343 40.9999 263 39.6567 263 37.9999L263 35.9999C263 34.343 264.343 32.9999 266 32.9999L271 32.9999L271 40.9999L266 40.9999Z" fill="#C3C6D2"/>
<path d="M270 39.9999C268.896 39.9999 268 39.1044 268 37.9999L268 35.9999C268 34.8953 268.896 33.9999 270 33.9999L272 33.9999L272 39.9999L270 39.9999Z" fill="#898E95"/>
<rect x="270" y="38.9999" width="1" height="6" transform="rotate(-90 270 38.9999)" fill="#736750"/>
<rect x="270" y="35.9999" width="1" height="6" transform="rotate(-90 270 35.9999)" fill="#736750"/>
<path d="M151 17.9999C152.657 17.9999 154 19.343 154 20.9999L154 22.9999C154 24.6567 152.657 25.9999 151 25.9999L146 25.9999L146 17.9999L151 17.9999Z" fill="#C3C6D2"/>
<path d="M147 18.9999C148.105 18.9999 149 19.8953 149 20.9999L149 22.9999C149 24.1044 148.105 24.9999 147 24.9999L145 24.9999L145 18.9999L147 18.9999Z" fill="#898E95"/>
<rect x="147" y="19.9999" width="1" height="6" transform="rotate(90 147 19.9999)" fill="#736750"/>
<rect x="147" y="22.9999" width="1" height="6" transform="rotate(90 147 22.9999)" fill="#736750"/>
<path d="M151 76.9999C152.657 76.9999 154 78.343 154 79.9999L154 81.9999C154 83.6567 152.657 84.9999 151 84.9999L146 84.9999L146 76.9999L151 76.9999Z" fill="#C3C6D2"/>
<path d="M147 77.9999C148.105 77.9999 149 78.8953 149 79.9999L149 81.9999C149 83.1044 148.105 83.9999 147 83.9999L145 83.9999L145 77.9999L147 77.9999Z" fill="#898E95"/>
<rect x="147" y="78.9999" width="1" height="6" transform="rotate(90 147 78.9999)" fill="#736750"/>
<rect x="147" y="81.9999" width="1" height="6" transform="rotate(90 147 81.9999)" fill="#736750"/>
<path d="M78.0002 28.9999C79.6571 28.9999 81.0002 30.343 81.0002 31.9999L81.0002 33.9999C81.0002 35.6567 79.6571 36.9999 78.0002 36.9999L73.0002 36.9999L73.0002 28.9999L78.0002 28.9999Z" fill="#C3C6D2"/>
<path d="M74.0002 29.9999C75.1048 29.9999 76.0002 30.8953 76.0002 31.9999L76.0002 33.9999C76.0002 35.1044 75.1048 35.9999 74.0002 35.9999L72.0002 35.9999L72.0002 29.9999L74.0002 29.9999Z" fill="#898E95"/>
<rect x="74.0002" y="30.9999" width="1" height="6" transform="rotate(90 74.0002 30.9999)" fill="#736750"/>
<rect x="74.0002" y="33.9999" width="1" height="6" transform="rotate(90 74.0002 33.9999)" fill="#736750"/>
<path d="M57.0002 46.9999C58.6571 46.9999 60.0002 48.343 60.0002 49.9999L60.0002 51.9999C60.0002 53.6567 58.6571 54.9999 57.0002 54.9999L52.0002 54.9999L52.0002 46.9999L57.0002 46.9999Z" fill="#C3C6D2"/>
<path d="M53.0002 47.9999C54.1048 47.9999 55.0002 48.8953 55.0002 49.9999L55.0002 51.9999C55.0002 53.1044 54.1048 53.9999 53.0002 53.9999L51.0002 53.9999L51.0002 47.9999L53.0002 47.9999Z" fill="#898E95"/>
<rect x="53.0002" y="48.9999" width="1" height="6" transform="rotate(90 53.0002 48.9999)" fill="#736750"/>
<rect x="53.0002" y="51.9999" width="1" height="6" transform="rotate(90 53.0002 51.9999)" fill="#736750"/>
<path d="M78.0002 64.9999C79.6571 64.9999 81.0002 66.343 81.0002 67.9999L81.0002 69.9999C81.0002 71.6567 79.6571 72.9999 78.0002 72.9999L73.0002 72.9999L73.0002 64.9999L78.0002 64.9999Z" fill="#C3C6D2"/>
<path d="M74.0002 65.9999C75.1048 65.9999 76.0002 66.8953 76.0002 67.9999L76.0002 69.9999C76.0002 71.1044 75.1048 71.9999 74.0002 71.9999L72.0002 71.9999L72.0002 65.9999L74.0002 65.9999Z" fill="#898E95"/>
<rect x="74.0002" y="66.9999" width="1" height="6" transform="rotate(90 74.0002 66.9999)" fill="#736750"/>
<rect x="74.0002" y="69.9999" width="1" height="6" transform="rotate(90 74.0002 69.9999)" fill="#736750"/>
<circle cx="167.5" cy="51.4999" r="15.5" transform="rotate(-90 167.5 51.4999)" fill="#B1AEAB"/>
<circle cx="167.5" cy="51.4999" r="13.5" transform="rotate(-90 167.5 51.4999)" fill="#8F9092"/>
<rect x="157" y="59.9999" width="17" height="16.875" rx="2" transform="rotate(-90 157 59.9999)" fill="#D5DFE9"/>
<path fill-rule="evenodd" clip-rule="evenodd" d="M171.625 59.9999L171.625 51.4999L171.625 42.9999C177.754 42.9999 182.429 44.3332 184 44.9999L184 51.4999L184 57.9999C182.429 58.6665 177.754 59.9999 171.625 59.9999Z" fill="#D5DFE9"/>
<ellipse cx="158.5" cy="56.8124" rx="3.1875" ry="3.5" transform="rotate(-90 158.5 56.8124)" fill="#ADB7BE"/>
<ellipse cx="158.5" cy="46.1874" rx="3.1875" ry="3.5" transform="rotate(-90 158.5 46.1874)" fill="#ADB7BE"/>
<ellipse cx="158.5" cy="51.4999" rx="3.1875" ry="3.5" transform="rotate(-90 158.5 51.4999)" fill="#ADB7BE"/>
<circle cx="157.813" cy="56.1874" r="2.8125" transform="rotate(-90 157.813 56.1874)" fill="#3C3E44"/>
<circle cx="157.813" cy="46.8124" r="2.8125" transform="rotate(-90 157.813 46.8124)" fill="#3C3E44"/>
<circle cx="157.813" cy="51.4999" r="2.8125" transform="rotate(-90 157.813 51.4999)" fill="#3C3E44"/>
<path d="M129 56.9999L129 55.9999L147.846 55.9999L147.846 56.9999L129 56.9999Z" fill="#BCB8B1"/>
<path d="M129 51.9999L129 50.9999L147.846 50.9999L147.846 51.9999L129 51.9999Z" fill="#BCB8B1"/>
<path d="M129 46.9999L129 45.9999L147.846 45.9999L147.846 46.9999L129 46.9999Z" fill="#BCB8B1"/>
<path d="M147 57.9999L147 54.9999L158.154 54.9999L158.154 57.9999L147 57.9999Z" fill="#D4D1C9"/>
<path d="M147 52.9999L147 49.9999L158.154 49.9999L158.154 52.9999L147 52.9999Z" fill="#D4D1C9"/>
<path d="M147 47.9999L147 44.9999L158.154 44.9999L158.154 47.9999L147 47.9999Z" fill="#D4D1C9"/>
<ellipse cx="169" cy="61.9999" rx="2" ry="3" transform="rotate(-90 169 61.9999)" fill="#D0DAE4"/>
<ellipse cx="169" cy="40.9999" rx="2" ry="3" transform="rotate(-90 169 40.9999)" fill="#D0DAE4"/>
<circle cx="108.5" cy="51.4999" r="15.5" transform="rotate(-90 108.5 51.4999)" fill="#B1AEAB"/>
<circle cx="108.5" cy="51.4999" r="13.5" transform="rotate(-90 108.5 51.4999)" fill="#8F9092"/>
<rect x="98.0002" y="59.9999" width="17" height="16.875" rx="2" transform="rotate(-90 98.0002 59.9999)" fill="#D5DFE9"/>
<path fill-rule="evenodd" clip-rule="evenodd" d="M112.625 59.9999L112.625 51.4999L112.625 42.9999C118.754 42.9999 123.429 44.3332 125 44.9999L125 51.4999L125 57.9999C123.429 58.6665 118.754 59.9999 112.625 59.9999Z" fill="#D5DFE9"/>
<ellipse cx="99.5002" cy="56.8124" rx="3.1875" ry="3.5" transform="rotate(-90 99.5002 56.8124)" fill="#ADB7BE"/>
<ellipse cx="99.5002" cy="46.1874" rx="3.1875" ry="3.5" transform="rotate(-90 99.5002 46.1874)" fill="#ADB7BE"/>
<ellipse cx="99.5002" cy="51.4999" rx="3.1875" ry="3.5" transform="rotate(-90 99.5002 51.4999)" fill="#ADB7BE"/>
<circle cx="98.8127" cy="56.1874" r="2.8125" transform="rotate(-90 98.8127 56.1874)" fill="#3C3E44"/>
<circle cx="98.8127" cy="46.8124" r="2.8125" transform="rotate(-90 98.8127 46.8124)" fill="#3C3E44"/>
<circle cx="98.8127" cy="51.4999" r="2.8125" transform="rotate(-90 98.8127 51.4999)" fill="#3C3E44"/>
<path d="M70.0002 56.9999L70.0002 55.9999L88.8464 55.9999L88.8464 56.9999L70.0002 56.9999Z" fill="#BCB8B1"/>
<path d="M70.0002 51.9999L70.0002 50.9999L88.8464 50.9999L88.8464 51.9999L70.0002 51.9999Z" fill="#BCB8B1"/>
<path d="M70.0002 46.9999L70.0002 45.9999L88.8464 45.9999L88.8464 46.9999L70.0002 46.9999Z" fill="#BCB8B1"/>
<path d="M88.0002 57.9999L88.0002 54.9999L99.1541 54.9999L99.1541 57.9999L88.0002 57.9999Z" fill="#D4D1C9"/>
<path d="M88.0002 52.9999L88.0002 49.9999L99.1541 49.9999L99.1541 52.9999L88.0002 52.9999Z" fill="#D4D1C9"/>
<path d="M88.0002 47.9999L88.0002 44.9999L99.1541 44.9999L99.1541 47.9999L88.0002 47.9999Z" fill="#D4D1C9"/>
<ellipse cx="110" cy="61.9999" rx="2" ry="3" transform="rotate(-90 110 61.9999)" fill="#D0DAE4"/>
<ellipse cx="110" cy="40.9999" rx="2" ry="3" transform="rotate(-90 110 40.9999)" fill="#D0DAE4"/>
<circle cx="34.5002" cy="61.4999" r="4.5" transform="rotate(-90 34.5002 61.4999)" fill="#C6D2DD"/>
<circle cx="13.5002" cy="50.4999" r="3.5" transform="rotate(-90 13.5002 50.4999)" fill="#6B6C69"/>
<circle cx="34.5002" cy="40.4999" r="4.5" transform="rotate(-90 34.5002 40.4999)" fill="#C6D2DD"/>
<rect x="10.0002" y="58.1754" width="2" height="23" transform="rotate(-72.7396 10.0002 58.1754)" fill="#DBD8D5"/>
<rect x="33.2166" y="36.1151" width="2" height="23" transform="rotate(75 33.2166 36.1151)" fill="#DBD8D5"/>
</svg>
