<svg width="111" height="37" viewBox="0 0 111 37" fill="none" xmlns="http://www.w3.org/2000/svg">
<path d="M50.0445 6.23778L50.1398 9.54444L47.7106 9.33778C44.8051 9.06222 44.4241 9.61333 43.9954 14.7111C43.8049 16.7778 43.5667 19.5333 43.4238 20.7044L43.1381 22.9778H37.47C33.9453 22.9778 31.7543 22.7022 31.5162 22.22C31.3256 21.7378 30.4683 21.6 29.2299 21.8756C28.182 22.0822 26.896 22.2889 26.4673 22.22C25.1813 22.1511 21.4185 22.22 20.5135 22.2889C20.0372 22.2889 18.9417 22.1511 18.0843 21.8756C17.1793 21.6 16.0362 21.7378 15.4646 22.1511C14.8931 22.5644 13.1783 23.0467 11.6542 23.2533C7.9866 23.6667 5.08113 26.1467 3.7951 29.9356C3.22353 31.52 2.89011 33.1044 3.033 33.4489C3.1759 33.7244 26.7531 34 55.4744 34H107.63L107.344 32.14C107.106 30.9689 107.201 30.1422 107.63 29.7289C108.154 29.3156 108.106 29.04 107.582 28.5578C107.154 28.1444 107.058 27.3178 107.249 26.1467C107.535 24.4244 107.487 24.3556 105.391 24.3556H103.248V12.6444H94.7221L94.0077 16.2267C93.6266 18.2244 93.0074 21.3244 92.674 23.1156C92.0548 26.6978 91.8643 26.8356 88.3872 26.0089C87.0536 25.6644 86.5773 25.2511 86.5773 24.2867C86.5773 23.1844 86.1962 22.9778 84.1481 22.9778C82.481 22.9778 81.5284 23.3222 81.1474 24.0111C80.6711 24.9756 80.0042 24.9756 76.3367 24.4244C73.9551 24.08 69.0015 23.5289 65.2863 23.3222L58.5228 22.84L55.5697 16.3644C53.6168 12.0244 52.3308 9.88889 51.7592 9.88889C50.9971 9.88889 50.8542 9.33778 50.8542 6.44444C50.8542 4.51556 50.6637 3 50.3779 3C50.1398 3 49.9493 4.44667 50.0445 6.23778Z" fill="#E6E6E6" fill-opacity="0.5"/>
</svg>
