<svg width="408" height="102" viewBox="0 0 408 102" fill="none" xmlns="http://www.w3.org/2000/svg">
<path fill-rule="evenodd" clip-rule="evenodd" d="M5.00024 51.5C25.8002 68.41 91.0002 93.775 131 93.775L343.671 93.775L403 83.7625L403 51.5L343.671 51.5L343.671 51.4998L403 51.4998L403 19.2373L343.671 9.22501L131 9.22502L131 9.22478C91.0002 9.22478 25.8002 34.5898 5.00024 51.4998L131 51.4998L131 51.5L5.00024 51.5Z" fill="#9F9F9F"/>
<rect x="324" y="60.7711" width="18.3675" height="21.9474" transform="rotate(-90 324 60.7711)" fill="#8C8C8C"/>
<path fill-rule="evenodd" clip-rule="evenodd" d="M329.644 52.2935L329.644 50.8807L335.914 50.8807L335.914 52.2935L329.644 52.2935ZM339.05 50.8807L339.05 52.2935L344.694 52.2935L344.694 53.0002L352.215 53.0002L341.918 64.6011L338.082 60.6152L336.806 62.1731L342.23 67.8087L342.23 67.8354L342.255 67.8348L342.255 67.8352L342.256 67.8348L393.635 66.4438L393.605 65.0094L393.605 65.0094L393.605 38.5081L393.633 36.7521L342.221 35.7098L342.22 35.8136L342.124 35.706L336.882 41.6113L338.213 43.1099L341.887 38.9701L351.833 50.1744L344.694 50.1744L344.694 50.8807L339.05 50.8807ZM354.099 65.3942L343.622 65.6778L354.099 53.8744L354.099 65.3942ZM355.981 65.3432L391.723 64.3756L391.723 38.833L355.981 38.1084L355.981 50.1744L360.997 50.1744L360.997 53.0002L355.981 53.0002L355.981 65.3432ZM354.099 49.7309L354.099 38.0703L343.559 37.8566L354.099 49.7309ZM364.133 53.0002L364.133 50.1744L368.522 50.1744L368.522 53.0002L364.133 53.0002ZM371.657 50.1744L371.657 53.0002L376.047 53.0002L376.047 50.1744L371.657 50.1744ZM379.182 53.0002L379.182 50.1744L383.572 50.1744L383.572 53.0002L379.182 53.0002ZM376.674 49.0938L376.674 47.2238L378.555 47.2238L378.555 49.0938L376.674 49.0938ZM376.674 44.1071L376.674 45.9771L378.555 45.9771L378.555 44.1071L376.674 44.1071ZM376.674 42.8605L376.674 40.9905L378.555 40.9905L378.555 42.8605L376.674 42.8605ZM376.674 60.3139L376.674 62.1839L378.555 62.1839L378.555 60.3139L376.674 60.3139ZM376.674 59.067L376.674 57.197L378.555 57.197L378.555 59.067L376.674 59.067ZM376.674 54.0805L376.674 55.9505L378.555 55.9505L378.555 54.0805L376.674 54.0805Z" fill="#E6E6E6"/>
<rect x="41.3818" y="58.4531" width="14.8606" height="5.8626" transform="rotate(-90 41.3818 58.4531)" fill="#848484"/>
<path fill-rule="evenodd" clip-rule="evenodd" d="M16.4658 51.0231L16.4658 52.6742L23.7941 52.6742L23.7941 53.4995L42.1147 53.4995L42.1147 48.546L23.7941 48.546L23.7941 51.0231L16.4658 51.0231Z" fill="#848484"/>
<ellipse cx="16.8323" cy="51.4355" rx="2.06397" ry="1.83206" transform="rotate(-90 16.8323 51.4355)" fill="#636363"/>
<ellipse cx="23.0614" cy="48.5462" rx="1.65117" ry="1.46565" transform="rotate(-90 23.0614 48.5462)" fill="#636363"/>
<rect x="52.0002" y="59.2786" width="16.5117" height="13.1908" rx="2" transform="rotate(-90 52.0002 59.2786)" fill="#BDBDBD"/>
<rect x="52.7332" y="58.4923" width="14.9392" height="11.7252" rx="1" transform="rotate(-90 52.7332 58.4923)" fill="#686868"/>
<rect x="57.8628" y="66.7087" width="14.035" height="2.19847" transform="rotate(-90 57.8628 66.7087)" fill="#D9D9D9"/>
<rect x="57.8628" y="49.3715" width="14.035" height="2.19847" transform="rotate(-90 57.8628 49.3715)" fill="#D9D9D9"/>
<rect x="56.3972" y="50.1971" width="4.39695" height="1.65117" fill="#D9D9D9"/>
<rect x="62.2598" y="50.1971" width="6.59542" height="1.65117" fill="#D9D9D9"/>
<path fill-rule="evenodd" clip-rule="evenodd" d="M71.7864 51.0227L71.7864 56.8018L77.2825 56.8018C79.6032 56.8018 84.2444 55.646 84.2444 51.0227L71.7864 51.0227ZM71.7864 51.0227L71.7864 45.2435L77.2826 45.2435C79.6032 45.2435 84.2444 46.3994 84.2444 51.0227L71.7864 51.0227Z" fill="#9E9E9E"/>
<rect x="75.4504" y="49.3715" width="3.30235" height="7.32824" transform="rotate(90 75.4504 49.3715)" fill="#606060"/>
<rect x="73.9849" y="50.1971" width="1.65117" height="5.12977" transform="rotate(90 73.9849 50.1971)" fill="#363636"/>
<path d="M87.0002 62.5807C81.4774 62.5807 77.0002 58.1035 77.0002 52.5807L77.0002 49.4642C77.0002 43.9414 81.4774 39.4643 87.0002 39.4643L91.6567 39.4643L91.6567 62.5807L87.0002 62.5807Z" fill="#8A8A89"/>
<rect x="180" y="82.4807" width="61.962" height="43" rx="4" transform="rotate(-90 180 82.4807)" fill="#504D4D"/>
<rect x="124" y="91.4935" width="79.9873" height="54" transform="rotate(-90 124 91.4935)" fill="#838383"/>
<rect x="216" y="64.4553" width="25.9114" height="16" transform="rotate(-90 216 64.4553)" fill="#8D8D8D"/>
<path fill-rule="evenodd" clip-rule="evenodd" d="M178 91.4937L197.847 70.1272L216.685 70.1272C219.5 70.1272 221 51.5001 221 51.5001L178 51.5001L178 91.4937ZM178 11.506L197.847 32.8724L216.685 32.8724C219.5 32.8724 221 51.4996 221 51.4996L178 51.4996L178 11.506Z" fill="#838383"/>
<rect x="182" y="68.9617" width="34.9241" height="36" transform="rotate(-90 182 68.9617)" fill="#9E9799"/>
<rect x="218" y="56.5691" width="3.37975" height="5" transform="rotate(-90 218 56.5691)" fill="#646263"/>
<rect x="218" y="49.8094" width="3.37975" height="5" transform="rotate(-90 218 49.8094)" fill="#646263"/>
<path d="M100 28.968L100 74.0313L114.5 90.3667L129.5 90.3667L146.5 71.2148L162.5 77.9743L171.5 74.0313L171.5 28.968L162.5 23.8983L146.5 31.7844L129.5 12.6325L114.5 12.6325L100 28.968Z" fill="#787878"/>
<path fill-rule="evenodd" clip-rule="evenodd" d="M185 50.9364L185 62.2023L213 59.9491L213 50.9364L185 50.9364ZM185 50.9363L185 39.6705L213 41.9237L213 50.9363L185 50.9363Z" fill="#141414"/>
<ellipse cx="192.435" cy="46.1854" rx="6.12273" ry="5.43478" transform="rotate(-90 192.435 46.1854)" fill="#222222"/>
<ellipse cx="207.109" cy="46.7976" rx="5.51046" ry="4.8913" transform="rotate(-90 207.109 46.7976)" fill="#222222"/>
<ellipse cx="192.978" cy="59.0428" rx="4.28591" ry="3.80435" transform="rotate(-90 192.978 59.0428)" fill="#222222"/>
<ellipse cx="201.131" cy="58.4306" rx="3.67364" ry="3.26087" transform="rotate(-90 201.131 58.4306)" fill="#222222"/>
<ellipse cx="192.435" cy="46.1852" rx="4.89818" ry="4.34783" transform="rotate(-90 192.435 46.1852)" fill="#060606"/>
<ellipse cx="207.109" cy="46.7975" rx="4.28591" ry="3.80435" transform="rotate(-90 207.109 46.7975)" fill="#060606"/>
<ellipse cx="192.978" cy="59.0429" rx="3.06136" ry="2.71739" transform="rotate(-90 192.978 59.0429)" fill="#060606"/>
<ellipse cx="201.131" cy="58.4309" rx="2.44909" ry="2.17391" transform="rotate(-90 201.131 58.4309)" fill="#060606"/>
<path d="M92.0002 60.5847C96.483 64.1474 105.759 71.4865 107 72.3416L107 51.4998L92.0002 51.4998L92.0002 60.5847Z" fill="#6D6D6D"/>
<path d="M92.0002 42.415C96.483 38.8523 105.759 31.5131 107 30.6581L107 51.4999L92.0002 51.4999L92.0002 42.415Z" fill="#6D6D6D"/>
<rect x="107" y="72.3416" width="41.6835" height="24" transform="rotate(-90 107 72.3416)" fill="#6D6D6D"/>
<path fill-rule="evenodd" clip-rule="evenodd" d="M105 51.4998C105 55.977 108.091 59.6409 112 59.9307L112 59.9492L134 62.2024C134.8 61.7518 142 54.8796 145.5 51.4999L134 40.7973L112 43.0505L112 43.0689C108.091 43.3588 105 47.0227 105 51.4998Z" fill="#9A9898"/>
<rect width="4.26069" height="14.9124" transform="matrix(0.663842 -0.747873 0.663842 0.747873 98.0002 74.7079)" fill="#D9D9D9"/>
<rect width="4.26069" height="14.9124" transform="matrix(0.663842 0.747873 -0.663842 0.747873 145.9 71.5215)" fill="#D9D9D9"/>
<rect width="4.26069" height="14.9124" transform="matrix(-0.663842 0.747873 -0.663842 -0.747873 148.728 28.5981)" fill="#D9D9D9"/>
<rect width="4.26069" height="14.9124" transform="matrix(-0.663842 -0.747873 0.663842 -0.747873 100.829 31.7845)" fill="#D9D9D9"/>
<rect x="107" y="73.4683" width="3.37975" height="18" transform="rotate(-90 107 73.4683)" fill="#959595"/>
<rect x="107" y="31.7848" width="3.37975" height="18" transform="rotate(-90 107 31.7848)" fill="#959595"/>
<rect x="125" y="73.4683" width="5.63291" height="8" transform="rotate(-90 125 73.4683)" fill="#9A9999"/>
<rect x="125" y="34.0377" width="5.63291" height="8" transform="rotate(-90 125 34.0377)" fill="#9A9999"/>
<ellipse cx="161.5" cy="66.1452" rx="5.06962" ry="4.5" transform="rotate(-90 161.5 66.1452)" fill="#676767"/>
<ellipse cx="161.5" cy="36.8542" rx="5.06962" ry="4.5" transform="rotate(-90 161.5 36.8542)" fill="#676767"/>
<ellipse cx="121" cy="88.1138" rx="5.63291" ry="5" transform="rotate(-90 121 88.1138)" fill="#D9D9D9"/>
<ellipse cx="121" cy="14.8859" rx="5.63291" ry="5" transform="rotate(-90 121 14.8859)" fill="#D9D9D9"/>
<ellipse cx="148" cy="62.2025" rx="3.37975" ry="3" transform="rotate(-90 148 62.2025)" fill="#D9D9D9"/>
<ellipse cx="148" cy="40.7974" rx="3.37975" ry="3" transform="rotate(-90 148 40.7974)" fill="#D9D9D9"/>
<ellipse cx="144" cy="52.063" rx="3.37975" ry="3" transform="rotate(-90 144 52.063)" fill="#D9D9D9"/>
<ellipse cx="129" cy="81.3545" rx="2.25316" ry="2" transform="rotate(-90 129 81.3545)" fill="#D9D9D9"/>
<ellipse cx="129" cy="22.7721" rx="2.25316" ry="2" transform="rotate(-90 129 22.7721)" fill="#D9D9D9"/>
<ellipse cx="312.357" cy="51.6609" rx="6.03526" ry="5.35714" transform="rotate(-90 312.357 51.6609)" fill="#696969"/>
<ellipse cx="312.357" cy="51.6608" rx="3.62116" ry="3.21429" transform="rotate(-90 312.357 51.6608)" fill="#D9D9D9"/>
<rect x="316.643" y="52.8679" width="2.4141" height="5.35714" transform="rotate(-90 316.643 52.8679)" fill="#868686"/>
<path fill-rule="evenodd" clip-rule="evenodd" d="M237.78 74.5948C236.123 74.5948 234.78 73.2517 234.78 71.5948L234.78 31.405C234.78 29.7481 236.123 28.405 237.78 28.405L256.475 28.405C256.828 28.405 257.168 28.4662 257.483 28.5787L257.483 28.405L294.525 41.602L308.865 41.602L308.865 41.3028C308.865 39.6459 310.208 38.3028 311.865 38.3028L321 38.3028C322.657 38.3028 324 39.6459 324 41.3028L324 61.697C324 63.3539 322.657 64.697 321 64.697L311.865 64.697C310.208 64.697 308.865 63.3539 308.865 61.697L308.865 61.3977L294.526 61.3977C294.526 61.3977 294.526 61.3977 294.526 61.3977C294.526 61.3977 269.831 70.3791 257.483 74.5948L257.483 74.4211C257.168 74.5336 256.828 74.5948 256.475 74.5948L237.78 74.5948Z" fill="#989795"/>
<rect x="236.373" y="72.3955" width="41.7908" height="22.7193" rx="2" transform="rotate(-90 236.373 72.3955)" fill="#828283"/>
<path d="M291.339 60.4553C291.339 60.4553 268.62 68.5813 257.26 72.3955L257.26 30.6047L291.339 42.5449C291.217 48.1834 291.339 60.4553 291.339 60.4553Z" fill="#828283"/>
<path fill-rule="evenodd" clip-rule="evenodd" d="M238.753 67.8354L237.17 51.5L301.695 51.5L301.695 57.5502L286.256 57.5502L238.753 67.8354ZM238.753 35.1645L237.17 51.4999L301.695 51.4999L301.695 45.4497L286.256 45.4497L238.753 35.1645Z" fill="#9F9F9F"/>
<rect x="230" y="57.6963" width="12.3924" height="11.1525" transform="rotate(-90 230 57.6963)" fill="#3A3A3A"/>
<path d="M238.763 59.9495L238.763 43.0507L257.085 45.8672L257.085 57.133L238.763 59.9495Z" fill="#0F0F0F"/>
<ellipse cx="245.933" cy="53.1898" rx="3.37975" ry="2.38983" transform="rotate(-90 245.933 53.1898)" fill="#1D1D1D"/>
<ellipse cx="245.932" cy="53.1897" rx="2.25316" ry="1.59322" transform="rotate(-90 245.932 53.1897)" fill="#030303"/>
<ellipse cx="252.305" cy="50.9368" rx="3.37975" ry="2.38983" transform="rotate(-90 252.305 50.9368)" fill="#1D1D1D"/>
<ellipse cx="252.305" cy="50.9367" rx="2.25316" ry="1.59322" transform="rotate(-90 252.305 50.9367)" fill="#030303"/>
<rect x="273.814" y="56.5696" width="10.1392" height="7.9661" transform="rotate(-90 273.814 56.5696)" fill="#7D7D7D"/>
<rect x="274.61" y="55.556" width="8.11139" height="5.57627" transform="rotate(-90 274.61 55.556)" fill="#686868"/>
<rect x="285.763" y="56.5696" width="10.1392" height="17.5254" rx="1" transform="rotate(-90 285.763 56.5696)" fill="#8A8686"/>
<rect x="293.729" y="55.4429" width="7.88608" height="2.38983" transform="rotate(-90 293.729 55.4429)" fill="#C5C5C5"/>
<rect x="300.102" y="55.4429" width="7.88608" height="2.38983" transform="rotate(-90 300.102 55.4429)" fill="#C5C5C5"/>
<path fill-rule="evenodd" clip-rule="evenodd" d="M278 28.9681L278 28.9681L278 28.9681L278 28.9681C279.6 33.9251 284.667 35.1643 287 35.1643L306 35.1643L306 22.7719L287 22.7719L287 22.7719C284.667 22.7719 279.6 24.0112 278 28.9681L278 28.9681Z" fill="#929292"/>
<path fill-rule="evenodd" clip-rule="evenodd" d="M287.679 34.0377C287.679 34.0377 287.679 34.0377 287.679 34.0377L306 34.0377L306 23.8582L287.679 23.8582C285.429 23.8583 280.543 24.8763 279 28.948C280.543 33.0197 285.429 34.0377 287.679 34.0377Z" fill="#6D6D6D"/>
<rect x="303" y="31.7848" width="5.63291" height="4" transform="rotate(-90 303 31.7848)" fill="#D9D9D9"/>
<rect x="272" y="16.0128" width="5.63291" height="5" transform="rotate(-90 272 16.0128)" fill="#D9D9D9"/>
<rect x="279" y="16.0128" width="5.63291" height="5" transform="rotate(-90 279 16.0128)" fill="#D9D9D9"/>
<rect x="270" y="29.5315" width="5.63291" height="5" transform="rotate(-90 270 29.5315)" fill="#5E5E5E"/>
<rect x="256" y="23.8989" width="5.63291" height="5" transform="rotate(-90 256 23.8989)" fill="#5E5E5E"/>
<rect x="273" y="92.62" width="5.63291" height="3" transform="rotate(-90 273 92.62)" fill="#D9D9D9"/>
<rect x="268" y="91.4937" width="2.25316" height="3" transform="rotate(-90 268 91.4937)" fill="#D9D9D9"/>
<rect x="279" y="92.62" width="5.63291" height="3" transform="rotate(-90 279 92.62)" fill="#D9D9D9"/>
<rect x="285" y="92.62" width="5.63291" height="3" transform="rotate(-90 285 92.62)" fill="#D9D9D9"/>
<rect x="304" y="95.9999" width="5.63291" height="16" transform="rotate(-90 304 95.9999)" fill="#6B6B6B"/>
<rect x="304" y="11.5061" width="4.50633" height="13" transform="rotate(-90 304 11.5061)" fill="#8E8E8E"/>
</svg>
