<svg width="148" height="37" viewBox="0 0 148 37" fill="none" xmlns="http://www.w3.org/2000/svg">
<path d="M51.3673 4.90769C50.8592 6.49744 50.0463 6.89487 46.8963 7.13333L43.1367 7.37179L42.1206 14.6846C41.6125 18.659 40.7996 22.2359 40.3932 22.4744C39.9867 22.7923 37.8529 22.7923 35.6174 22.4744C31.6545 21.9974 31.4513 21.759 31.4513 19.2154C31.4513 16.9897 31.0449 16.4333 28.8094 16.0359C27.3868 15.718 25.7611 15.8769 25.0498 16.4333C24.4401 16.9103 22.5095 17.3077 20.7821 17.3872L17.7337 17.4667L21.0869 18.1821C23.0175 18.659 24.3385 19.4538 24.3385 20.2487C24.3385 21.3615 23.1192 21.441 13.6692 20.9641C7.77576 20.6462 3 20.5667 3 20.8051C3 21.0436 5.84513 24.0641 9.29994 27.641L15.4983 34H74.6364C107.254 34 135.299 33.7615 137.026 33.5231C139.77 33.0462 140.176 32.6487 140.176 30.5026C140.176 28.4359 140.684 27.8 142.92 27.1641C145.46 26.4487 145.561 26.3692 143.834 25.0974C142.716 24.1436 140.481 23.6667 137.534 23.6667C133.266 23.6667 131.539 22.7128 134.384 21.8385C134.994 21.6 134.689 21.3615 133.571 21.2821C131.844 21.1231 131.945 21.0436 134.079 20.5667C136.213 20.0103 135.807 19.8513 131.336 19.3744C125.137 18.659 123.918 19.0564 123.918 21.759C123.918 23.5872 123.715 23.6667 116.297 23.6667C108.88 23.6667 108.676 23.5872 108.676 21.6795C108.676 20.0897 109.184 19.6923 111.318 19.6923C115.992 19.6923 113.35 17.7051 108.372 17.4667C103.901 17.2282 103.596 17.0692 103.596 15.0026C103.596 13.6513 102.884 12.5385 101.97 12.2205C99.4297 11.4256 95.67 11.6641 94.8571 12.6179C94.5523 13.0949 92.9265 13.3333 91.3007 13.1744C89.7765 12.9359 88.6588 13.0949 88.9636 13.4923C89.2685 13.8103 90.2846 14.1282 91.1991 14.2077C92.6217 14.2077 92.5201 14.3667 90.8943 14.9231C89.1669 15.4795 89.1669 15.6385 90.6911 15.6385C91.6056 15.718 92.4185 16.1154 92.4185 16.5128C92.4185 17.0692 90.183 17.3077 86.6266 17.1487L80.7331 16.9103L80.0218 13.4128C79.6154 11.5051 79.1073 9.8359 78.9041 9.67692C78.8025 9.51795 76.6686 9.35897 74.2299 9.2L69.8606 8.96154L68.1332 13.1744C67.2187 15.559 66.101 17.3872 65.5929 17.3872C65.0849 17.3872 63.5607 14.4462 62.2397 10.8692C60.9188 7.29231 59.5978 4.03333 59.293 3.6359C58.9881 3.31795 57.2607 3 55.3301 3C52.6882 3 51.8753 3.39744 51.3673 4.90769Z" fill="#E6E6E6" fill-opacity="0.5"/>
</svg>
