<svg width="306" height="102" viewBox="0 0 306 102" fill="none" xmlns="http://www.w3.org/2000/svg">
<circle cx="34.5" cy="50.4999" r="31.5" transform="rotate(-90 34.5 50.4999)" fill="#4A5B7E"/>
<rect x="34" y="81.9999" width="63" height="211" transform="rotate(-90 34 81.9999)" fill="#4A5B7E"/>
<circle cx="243.5" cy="50.4999" r="31.5" transform="rotate(-90 243.5 50.4999)" fill="#4A5B7E"/>
<circle cx="279.5" cy="50.4999" r="18.5" transform="rotate(-90 279.5 50.4999)" fill="#4A5B7E"/>
<rect x="280" y="68.9999" width="37" height="15" transform="rotate(-90 280 68.9999)" fill="#4A5B7E"/>
<circle cx="60.5" cy="50.4999" r="20.5" transform="rotate(-90 60.5 50.4999)" fill="#38445C"/>
<rect x="59.7407" y="70.9999" width="41" height="68.3333" transform="rotate(-90 59.7407 70.9999)" fill="#38445C"/>
<circle cx="127.315" cy="50.4999" r="20.5" transform="rotate(-90 127.315 50.4999)" fill="#38445C"/>
<circle cx="143.345" cy="50.4998" r="13.3451" transform="rotate(-90 143.345 50.4998)" fill="#38445C"/>
<rect x="142.851" y="63.8448" width="26.6901" height="44.4836" transform="rotate(-90 142.851 63.8448)" fill="#38445C"/>
<circle cx="186.84" cy="50.4998" r="13.3451" transform="rotate(-90 186.84 50.4998)" fill="#38445C"/>
<ellipse cx="64.5085" cy="50.4999" rx="11.5" ry="11.5085" transform="rotate(-90 64.5085 50.4999)" fill="#353C4D"/>
<rect x="64.0823" y="61.9999" width="23" height="38.3618" transform="rotate(-90 64.0823 61.9999)" fill="#353C4D"/>
<ellipse cx="102.018" cy="50.4999" rx="11.5" ry="11.5085" transform="rotate(-90 102.018 50.4999)" fill="#242D41"/>
<path d="M103 61.9999L78 57.9999L78 42.9999L103 38.9999L103 61.9999Z" fill="#242D41"/>
<circle cx="64.5" cy="50.4999" r="7.5" transform="rotate(-90 64.5 50.4999)" fill="#3E485F"/>
<rect x="64" y="57.9999" width="15" height="18" transform="rotate(-90 64 57.9999)" fill="#3E485F"/>
<circle cx="81.5" cy="50.4999" r="7.5" transform="rotate(-90 81.5 50.4999)" fill="#3E485F"/>
<circle cx="186.5" cy="50.4999" r="7.5" transform="rotate(-90 186.5 50.4999)" fill="#242B38"/>
<circle cx="185.5" cy="50.4999" r="5.5" transform="rotate(-90 185.5 50.4999)" fill="#4D5971"/>
<circle cx="167.5" cy="50.4999" r="7.5" transform="rotate(-90 167.5 50.4999)" fill="#242B38"/>
<circle cx="166.5" cy="50.4999" r="5.5" transform="rotate(-90 166.5 50.4999)" fill="#4D5971"/>
<circle cx="147.5" cy="50.4999" r="7.5" transform="rotate(-90 147.5 50.4999)" fill="#242B38"/>
<circle cx="146.5" cy="50.4999" r="5.5" transform="rotate(-90 146.5 50.4999)" fill="#4D5971"/>
<circle cx="127.5" cy="50.4999" r="7.5" transform="rotate(-90 127.5 50.4999)" fill="#242B38"/>
<circle cx="126.5" cy="50.4999" r="5.5" transform="rotate(-90 126.5 50.4999)" fill="#4D5971"/>
<ellipse cx="279.525" cy="49.9999" rx="5" ry="6.525" transform="rotate(-90 279.525 49.9999)" fill="#2D323C"/>
<path d="M281.7 49.9999L279.525 54.9999L299.1 52.7777L299.1 49.9999L281.7 49.9999Z" fill="#2D323C"/>
<path d="M281.7 49.9999L279.525 44.9999L299.1 47.2221L299.1 49.9999L281.7 49.9999Z" fill="#2D323C"/>
<ellipse cx="298.375" cy="49.9999" rx="2.77778" ry="3.625" transform="rotate(-90 298.375 49.9999)" fill="#2D323C"/>
<path d="M217 18.9999L231 3.99988L243 2.99988L243 18.9999L217 18.9999Z" fill="#2D323C"/>
<path d="M217 81.9999L231 96.9999L243 97.9999L243 81.9999L217 81.9999Z" fill="#2D323C"/>
<path d="M69 38.9999L76.5385 22.1249L83 20.9999L83 38.9999L69 38.9999Z" fill="#2D323C"/>
<path d="M69 61.9999L76.5385 78.8749L83 79.9999L83 61.9999L69 61.9999Z" fill="#2D323C"/>
<ellipse cx="14.6796" cy="68.261" rx="4.5" ry="1.5" transform="rotate(-126.706 14.6796 68.261)" fill="#3C4557"/>
<ellipse cx="25.7388" cy="75.9898" rx="4.5" ry="1.5" transform="rotate(-159.047 25.7388 75.9898)" fill="#3C4557"/>
<ellipse cx="21.5578" cy="69.214" rx="4.5" ry="1.5" transform="rotate(-145.482 21.5578 69.214)" fill="#3C4557"/>
<ellipse cx="4.45399" cy="1.4915" rx="4.45399" ry="1.4915" transform="matrix(-0.60388 0.797076 0.806288 0.591524 16.3794 28.135)" fill="#3C4557"/>
<ellipse cx="4.49088" cy="1.47915" rx="4.49088" ry="1.47915" transform="matrix(-0.935768 0.352616 0.362647 0.931926 29.6177 21.9999)" fill="#3C4557"/>
<ellipse cx="4.47707" cy="1.4838" rx="4.47707" ry="1.4838" transform="matrix(-0.828167 0.560481 0.572854 0.819658 24.6282 27.9042)" fill="#3C4557"/>
<rect x="152" y="31.9999" width="2" height="73" transform="rotate(-90 152 31.9999)" fill="#38445C"/>
<rect x="152" y="70.9999" width="2" height="73" transform="rotate(-90 152 70.9999)" fill="#38445C"/>
<rect x="143.532" y="23.6329" width="2" height="11.8327" transform="rotate(-45 143.532 23.6329)" fill="#38445C"/>
<rect x="152.367" y="69.2186" width="2" height="11.8327" transform="rotate(45 152.367 69.2186)" fill="#38445C"/>
<ellipse cx="243" cy="50.4999" rx="25.5" ry="26" transform="rotate(-90 243 50.4999)" fill="#38445C"/>
<ellipse cx="238" cy="50.4999" rx="25.5" ry="26" transform="rotate(-90 238 50.4999)" fill="#4A5A7E"/>
</svg>
