<svg width="74" height="37" viewBox="0 0 74 37" fill="none" xmlns="http://www.w3.org/2000/svg">
<path opacity="0.5" d="M39.5957 3.35942C39.5957 3.60873 39.5957 7.03684 39.6691 10.8389C39.7424 16.6356 39.5957 17.8821 38.7157 17.8821C38.129 17.8821 37.4689 17.4458 37.1756 16.9472C36.5155 15.389 31.3085 15.7629 29.1084 17.5082C28.0083 18.3184 27.2016 19.2534 27.2016 19.6897C27.2016 20.1883 23.608 20.3753 15.1008 20.3753H3L3.07334 22.9931C3.07334 24.489 3.66004 27.4808 4.32009 29.7247L5.56684 33.7761L34.0954 33.9631C55.1434 34.0877 62.8439 33.9008 63.6507 33.3398C64.6774 32.6542 70.0311 25.1123 70.9111 23.2425C71.2778 22.4322 70.6178 22.2452 66.8775 22.2452H62.4772L61.6705 19.6897C61.1572 18.2561 61.0105 16.5109 61.2305 15.8253C61.4505 15.015 61.1572 14.5164 60.1304 14.3294C59.397 14.1424 58.737 13.5191 58.737 12.9581C58.6637 12.0855 58.5903 12.0855 57.7103 13.0205C56.4635 14.454 50.6698 14.5787 50.6698 13.2074C50.6698 12.6465 49.9364 12.2725 48.6897 12.2102L46.6362 12.1478L48.8364 11.7115L51.0365 11.3376L47.883 10.5273C44.1427 9.53001 43.336 9.90399 43.336 12.3348C43.336 13.3944 42.8226 14.7033 42.1626 15.202C41.1358 16.1369 41.0625 15.6383 41.2092 9.77933C41.3559 5.16697 41.2092 3.23476 40.5491 3.04777C40.0358 2.92311 39.6691 3.04777 39.5957 3.35942Z" fill="#E6E6E6"/>
</svg>
