<svg width="204" height="102" viewBox="0 0 204 102" fill="none" xmlns="http://www.w3.org/2000/svg">
<path fill-rule="evenodd" clip-rule="evenodd" d="M10.2917 61.0406C28.3137 67.8517 86.7047 77.3967 114.5 77.3967C118.87 77.3967 122.97 77.4099 126.827 77.4223C160.611 77.5309 175.845 77.5799 192 68.1923L191.776 67.9277C196.593 65.2694 200 58.7097 200 51.0387C200 43.4399 196.657 36.9316 191.912 34.2258L192 34.123C175.845 24.8657 160.611 24.914 126.827 25.0211C122.97 25.0333 118.87 25.0463 114.5 25.0463C86.0253 25.0463 26.4393 34.3815 10.0436 41.1189C5.32255 42.7268 2 46.5626 2 51.0387C2 55.5929 5.43936 59.4842 10.2917 61.0406Z" fill="#8D8D8D"/>
<circle cx="27.1" cy="50.6999" r="9.3" transform="rotate(-90 27.1 50.6999)" fill="#B1AEAB"/>
<circle cx="27.1" cy="50.6999" r="8.1" transform="rotate(-90 27.1 50.6999)" fill="#8F9092"/>
<rect x="21.0132" y="56.3807" width="11.1313" height="7.84275" rx="2" transform="rotate(-90 21.0132 56.3807)" fill="#D5DFE9"/>
<path fill-rule="evenodd" clip-rule="evenodd" d="M27.8216 50.815L32.7513 50.815L32.7513 55.071C32.021 55.5076 29.8483 56.3806 27 56.3806L27 50.815L27.8216 50.815ZM27.8216 50.8149L32.7513 50.8149L32.7513 46.5588C32.021 46.1223 29.8483 45.2493 27 45.2493L27 50.8149L27.8216 50.8149Z" fill="#D5DFE9"/>
<ellipse cx="21.7104" cy="54.2936" rx="2.08712" ry="1.62664" transform="rotate(-90 21.7104 54.2936)" fill="#ADB7BE"/>
<ellipse cx="21.7104" cy="47.3366" rx="2.08712" ry="1.62664" transform="rotate(-90 21.7104 47.3366)" fill="#ADB7BE"/>
<ellipse cx="21.7104" cy="50.8149" rx="2.08712" ry="1.62664" transform="rotate(-90 21.7104 50.8149)" fill="#ADB7BE"/>
<ellipse cx="21.3909" cy="53.8844" rx="1.84158" ry="1.30712" transform="rotate(-90 21.3909 53.8844)" fill="#3C3E44"/>
<ellipse cx="21.3909" cy="47.7457" rx="1.84158" ry="1.30712" transform="rotate(-90 21.3909 47.7457)" fill="#3C3E44"/>
<ellipse cx="21.3909" cy="50.8147" rx="1.84158" ry="1.30712" transform="rotate(-90 21.3909 50.8147)" fill="#3C3E44"/>
<path d="M8 54.4165L8 53.7617L16.7589 53.7617L16.7589 54.4165L8 54.4165Z" fill="#BCB8B1"/>
<path d="M8 51.1426L8 50.4878L16.7589 50.4878L16.7589 51.1426L8 51.1426Z" fill="#BCB8B1"/>
<path d="M8 47.8683L8 47.2135L16.7589 47.2135L16.7589 47.8683L8 47.8683Z" fill="#BCB8B1"/>
<path d="M16.3657 55.0715L16.3657 53.1072L21.5495 53.1072L21.5495 55.0715L16.3657 55.0715Z" fill="#D4D1C9"/>
<path d="M16.3657 51.7976L16.3657 49.8333L21.5495 49.8333L21.5495 51.7976L16.3657 51.7976Z" fill="#D4D1C9"/>
<path d="M16.3657 48.5236L16.3657 46.5592L21.5495 46.5592L21.5495 48.5236L16.3657 48.5236Z" fill="#D4D1C9"/>
<ellipse cx="33.3943" cy="57.6903" rx="1.30957" ry="1.39427" transform="rotate(-90 33.3943 57.6903)" fill="#D0DAE4"/>
<ellipse cx="33.3943" cy="43.9402" rx="1.30957" ry="1.39427" transform="rotate(-90 33.3943 43.9402)" fill="#D0DAE4"/>
<circle cx="51.1" cy="50.6999" r="9.3" transform="rotate(-90 51.1 50.6999)" fill="#B1AEAB"/>
<circle cx="51.1" cy="50.6999" r="8.1" transform="rotate(-90 51.1 50.6999)" fill="#8F9092"/>
<rect x="45.0132" y="56.3807" width="11.1313" height="7.84275" rx="2" transform="rotate(-90 45.0132 56.3807)" fill="#D5DFE9"/>
<path fill-rule="evenodd" clip-rule="evenodd" d="M51.8216 50.815L56.7513 50.815L56.7513 55.071C56.021 55.5076 53.8483 56.3806 51 56.3806L51 50.815L51.8216 50.815ZM51.8216 50.8149L56.7513 50.8149L56.7513 46.5588C56.021 46.1223 53.8483 45.2493 51 45.2493L51 50.8149L51.8216 50.8149Z" fill="#D5DFE9"/>
<ellipse cx="45.7104" cy="54.2936" rx="2.08712" ry="1.62664" transform="rotate(-90 45.7104 54.2936)" fill="#ADB7BE"/>
<ellipse cx="45.7104" cy="47.3366" rx="2.08712" ry="1.62664" transform="rotate(-90 45.7104 47.3366)" fill="#ADB7BE"/>
<ellipse cx="45.7104" cy="50.8149" rx="2.08712" ry="1.62664" transform="rotate(-90 45.7104 50.8149)" fill="#ADB7BE"/>
<ellipse cx="45.3909" cy="53.8844" rx="1.84158" ry="1.30712" transform="rotate(-90 45.3909 53.8844)" fill="#3C3E44"/>
<ellipse cx="45.3909" cy="47.7457" rx="1.84158" ry="1.30712" transform="rotate(-90 45.3909 47.7457)" fill="#3C3E44"/>
<ellipse cx="45.3909" cy="50.8147" rx="1.84158" ry="1.30712" transform="rotate(-90 45.3909 50.8147)" fill="#3C3E44"/>
<path d="M32 54.4165L32 53.7617L40.7589 53.7617L40.7589 54.4165L32 54.4165Z" fill="#BCB8B1"/>
<path d="M32 51.1426L32 50.4878L40.7589 50.4878L40.7589 51.1426L32 51.1426Z" fill="#BCB8B1"/>
<path d="M32 47.8683L32 47.2135L40.7589 47.2135L40.7589 47.8683L32 47.8683Z" fill="#BCB8B1"/>
<path d="M40.3657 55.0715L40.3657 53.1072L45.5495 53.1072L45.5495 55.0715L40.3657 55.0715Z" fill="#D4D1C9"/>
<path d="M40.3657 51.7976L40.3657 49.8333L45.5495 49.8333L45.5495 51.7976L40.3657 51.7976Z" fill="#D4D1C9"/>
<path d="M40.3657 48.5236L40.3657 46.5592L45.5495 46.5592L45.5495 48.5236L40.3657 48.5236Z" fill="#D4D1C9"/>
<ellipse cx="57.3943" cy="57.6903" rx="1.30957" ry="1.39427" transform="rotate(-90 57.3943 57.6903)" fill="#D0DAE4"/>
<ellipse cx="57.3943" cy="43.9402" rx="1.30957" ry="1.39427" transform="rotate(-90 57.3943 43.9402)" fill="#D0DAE4"/>
<rect x="141" y="80.9999" width="60" height="14" transform="rotate(-90 141 80.9999)" fill="#414141"/>
<path d="M155 80.9999L155 20.9999L166 32.9999L166 67.9999L155 80.9999Z" fill="#414141"/>
<rect x="165" y="68.9999" width="36" height="5.04" transform="rotate(-90 165 68.9999)" fill="#414141"/>
<path d="M170.04 68.9999L170.04 32.9999L174 40.1999L174 61.1999L170.04 68.9999Z" fill="#414141"/>
<rect x="138" y="78.9999" width="56" height="14" transform="rotate(-90 138 78.9999)" fill="#797979"/>
<path d="M152 78.9999L152 22.9999L163 34.9999L163 66.8665L152 78.9999Z" fill="#797979"/>
<rect x="162" y="66.9999" width="32" height="5.03999" transform="rotate(-90 162 66.9999)" fill="#797979"/>
<path d="M167.04 66.9999L167.04 34.9999L171 41.3999L171 60.0665L167.04 66.9999Z" fill="#797979"/>
<circle cx="181.3" cy="50.6998" r="9.3" transform="rotate(90 181.3 50.6998)" fill="#B1AEAB"/>
<circle cx="181.3" cy="50.6997" r="8.1" transform="rotate(90 181.3 50.6997)" fill="#8F9092"/>
<rect x="187.387" y="45.0189" width="11.1313" height="7.84275" rx="2" transform="rotate(90 187.387 45.0189)" fill="#D5DFE9"/>
<path fill-rule="evenodd" clip-rule="evenodd" d="M180.578 50.5847L175.649 50.5847L175.649 46.3286C176.379 45.8921 178.552 45.019 181.4 45.019L181.4 50.5847L180.578 50.5847ZM180.578 50.5847L175.649 50.5847L175.649 54.8408C176.379 55.2773 178.552 56.1504 181.4 56.1504L181.4 50.5847L180.578 50.5847Z" fill="#D5DFE9"/>
<ellipse cx="186.69" cy="47.106" rx="2.08712" ry="1.62664" transform="rotate(90 186.69 47.106)" fill="#ADB7BE"/>
<ellipse cx="186.69" cy="54.0631" rx="2.08712" ry="1.62664" transform="rotate(90 186.69 54.0631)" fill="#ADB7BE"/>
<ellipse cx="186.69" cy="50.5848" rx="2.08712" ry="1.62664" transform="rotate(90 186.69 50.5848)" fill="#ADB7BE"/>
<ellipse cx="187.009" cy="47.5153" rx="1.84158" ry="1.30712" transform="rotate(90 187.009 47.5153)" fill="#3C3E44"/>
<ellipse cx="187.009" cy="53.654" rx="1.84158" ry="1.30712" transform="rotate(90 187.009 53.654)" fill="#3C3E44"/>
<ellipse cx="187.009" cy="50.585" rx="1.84158" ry="1.30712" transform="rotate(90 187.009 50.585)" fill="#3C3E44"/>
<path d="M200.4 46.9832L200.4 47.6379L191.641 47.6379L191.641 46.9832L200.4 46.9832Z" fill="#BCB8B1"/>
<path d="M200.4 50.2571L200.4 50.9119L191.641 50.9119L191.641 50.2571L200.4 50.2571Z" fill="#BCB8B1"/>
<path d="M200.4 53.5314L200.4 54.1862L191.641 54.1862L191.641 53.5314L200.4 53.5314Z" fill="#BCB8B1"/>
<path d="M192.034 46.3281L192.034 48.2925L186.85 48.2925L186.85 46.3281L192.034 46.3281Z" fill="#D4D1C9"/>
<path d="M192.034 49.6021L192.034 51.5664L186.85 51.5664L186.85 49.6021L192.034 49.6021Z" fill="#D4D1C9"/>
<path d="M192.034 52.8761L192.034 54.8404L186.85 54.8404L186.85 52.8761L192.034 52.8761Z" fill="#D4D1C9"/>
<ellipse cx="175.006" cy="43.7093" rx="1.30957" ry="1.39427" transform="rotate(90 175.006 43.7093)" fill="#D0DAE4"/>
<ellipse cx="175.006" cy="57.4595" rx="1.30957" ry="1.39427" transform="rotate(90 175.006 57.4595)" fill="#D0DAE4"/>
<path d="M177.705 73.9999C176.048 73.9999 174.705 72.6567 174.705 70.9999L174.705 68.8181C174.705 67.1612 176.048 65.8181 177.705 65.8181L182.886 65.8181L182.886 73.9999L177.705 73.9999Z" fill="#C3C6D2"/>
<path d="M181.818 72.9772C180.714 72.9772 179.818 72.0817 179.818 70.9772L179.818 68.8408C179.818 67.7362 180.714 66.8408 181.818 66.8408L183.909 66.8408L183.909 72.9772L181.818 72.9772Z" fill="#898E95"/>
<rect x="181.864" y="71.9545" width="1.02273" height="6.13636" transform="rotate(-90 181.864 71.9545)" fill="#736750"/>
<rect x="181.864" y="68.8862" width="1.02273" height="6.13636" transform="rotate(-90 181.864 68.8862)" fill="#736750"/>
<path d="M177.705 37.1818C176.048 37.1818 174.705 35.8386 174.705 34.1818L174.705 31.9999C174.705 30.3431 176.048 28.9999 177.705 28.9999L182.886 28.9999L182.886 37.1818L177.705 37.1818Z" fill="#C3C6D2"/>
<path d="M181.818 36.1591C180.714 36.1591 179.818 35.2636 179.818 34.1591L179.818 32.0227C179.818 30.9181 180.714 30.0227 181.818 30.0227L183.909 30.0227L183.909 36.1591L181.818 36.1591Z" fill="#898E95"/>
<rect x="181.864" y="35.1364" width="1.02273" height="6.13636" transform="rotate(-90 181.864 35.1364)" fill="#736750"/>
<rect x="181.864" y="32.0681" width="1.02273" height="6.13636" transform="rotate(-90 181.864 32.0681)" fill="#736750"/>
<path d="M59 53.9999L59 50.9999L81 50.9999C81 58.1999 78.0667 63.9999 76.6 65.9999L59 53.9999Z" fill="#A1A1A1"/>
<path d="M59 47.9999L59 50.9999L81 50.9999C81 43.7999 78.0667 37.9999 76.6 35.9999L59 47.9999Z" fill="#A1A1A1"/>
<path d="M61 53.9999L61 50.9999L83 50.9999C83 58.1999 80.0667 63.9999 78.6 65.9999L61 53.9999Z" fill="#686868"/>
<path d="M61 47.9999L61 50.9999L83 50.9999C83 43.7999 80.0667 37.9999 78.6 35.9999L61 47.9999Z" fill="#686868"/>
<path d="M62 52.5999L62 50.9999L73.7333 50.9999C73.7333 54.8399 72.1689 57.9332 71.3867 58.9999L62 52.5999Z" fill="#1B1B1B"/>
<path d="M62 49.3999L62 50.9999L73.7333 50.9999C73.7333 47.1599 72.1689 44.0665 71.3867 42.9999L62 49.3999Z" fill="#1B1B1B"/>
<path d="M63 54.9999C60.7909 54.9999 59 53.209 59 50.9999V50.9999C59 48.7907 60.7909 46.9999 63 46.9999L74 46.9999L74 54.9999L63 54.9999Z" fill="#D9D9D9"/>
<rect x="81" y="57.9999" width="14" height="2" transform="rotate(-90 81 57.9999)" fill="#D9D9D9"/>
<circle cx="85" cy="50.9999" r="4" transform="rotate(-90 85 50.9999)" fill="#828282"/>
<circle cx="85" cy="50.9999" r="3" transform="rotate(-90 85 50.9999)" fill="#3A3A3A"/>
<ellipse cx="87" cy="50.9999" rx="3" ry="4" transform="rotate(-90 87 50.9999)" fill="#D9D9D9"/>
<rect x="82" y="57.9999" width="3" height="5" transform="rotate(-90 82 57.9999)" fill="#B4B2B2"/>
<rect x="82" y="46.9999" width="3" height="5" transform="rotate(-90 82 46.9999)" fill="#B4B2B2"/>
<rect x="75" y="67.9999" width="34" height="2" transform="rotate(-90 75 67.9999)" fill="#828282"/>
<circle cx="76" cy="53.9999" r="2" transform="rotate(-90 76 53.9999)" fill="#1B1B1B"/>
<circle cx="76" cy="47.9999" r="2" transform="rotate(-90 76 47.9999)" fill="#1B1B1B"/>
<path d="M78 53.9999C76.3431 53.9999 75 52.6567 75 50.9999V50.9999C75 49.343 76.3431 47.9999 78 47.9999L80 47.9999L80 53.9999L78 53.9999Z" fill="#D9D9D9"/>
<circle cx="87.5" cy="71.4999" r="3.5" transform="rotate(-90 87.5 71.4999)" fill="#474747"/>
<circle cx="87.5" cy="71.4999" r="2.5" transform="rotate(-90 87.5 71.4999)" fill="#6C6C6C"/>
<rect x="87" y="83.9999" width="12" height="1" transform="rotate(-90 87 83.9999)" fill="#E0E0E0"/>
<circle cx="106.5" cy="30.4999" r="3.5" transform="rotate(90 106.5 30.4999)" fill="#474747"/>
<circle cx="106.5" cy="30.4999" r="2.5" transform="rotate(90 106.5 30.4999)" fill="#6C6C6C"/>
<rect x="107" y="17.9999" width="12" height="1" transform="rotate(90 107 17.9999)" fill="#E0E0E0"/>
<circle cx="106.5" cy="71.4999" r="3.5" transform="rotate(-90 106.5 71.4999)" fill="#474747"/>
<circle cx="106.5" cy="71.4999" r="2.5" transform="rotate(-90 106.5 71.4999)" fill="#6C6C6C"/>
<rect x="106" y="83.9999" width="12" height="1" transform="rotate(-90 106 83.9999)" fill="#E0E0E0"/>
<circle cx="87.5" cy="30.4999" r="3.5" transform="rotate(90 87.5 30.4999)" fill="#474747"/>
<circle cx="87.5" cy="30.4999" r="2.5" transform="rotate(90 87.5 30.4999)" fill="#6C6C6C"/>
<rect x="88" y="17.9999" width="12" height="1" transform="rotate(90 88 17.9999)" fill="#E0E0E0"/>
<circle cx="127" cy="72.9999" r="4" transform="rotate(-90 127 72.9999)" fill="#E9E9E9"/>
<circle cx="127" cy="28.9999" r="4" transform="rotate(-90 127 28.9999)" fill="#E9E9E9"/>
<rect x="111" y="76.9999" width="51" height="11" transform="rotate(-90 111 76.9999)" fill="#838383"/>
<circle cx="147" cy="72.9999" r="4" transform="rotate(-90 147 72.9999)" fill="#C1C1C1"/>
<circle cx="147" cy="28.9999" r="4" transform="rotate(-90 147 28.9999)" fill="#C1C1C1"/>
<rect x="115" y="74.9999" width="3" height="30" transform="rotate(-90 115 74.9999)" fill="#C1C1C1"/>
<rect x="115" y="29.9999" width="3" height="30" transform="rotate(-90 115 29.9999)" fill="#C1C1C1"/>
<rect x="50" y="68.6761" width="6" height="19" transform="rotate(-79.9254 50 68.6761)" fill="#535353"/>
<rect x="68.6982" y="29.7233" width="6" height="19" transform="rotate(79.7778 68.6982 29.7233)" fill="#535353"/>
<rect x="136" y="84.9999" width="23" height="3" transform="rotate(-90 136 84.9999)" fill="#D9D9D9"/>
<rect x="138" y="81.7141" width="16.4286" height="3" transform="rotate(-90 138 81.7141)" fill="#D9D9D9"/>
<rect x="136" y="39.9999" width="23" height="3" transform="rotate(-90 136 39.9999)" fill="#D9D9D9"/>
<rect x="138" y="36.7141" width="16.4286" height="3" transform="rotate(-90 138 36.7141)" fill="#D9D9D9"/>
<rect x="144" y="52.9999" width="5" height="19" rx="2.5" transform="rotate(-90 144 52.9999)" fill="#D9D9D9"/>
<rect x="145" y="51.9999" width="3" height="17" rx="1.5" transform="rotate(-90 145 51.9999)" fill="#454545"/>
<rect x="147" y="52.9999" width="5" height="1" transform="rotate(-90 147 52.9999)" fill="#D9D9D9"/>
<rect x="150" y="52.9999" width="5" height="1" transform="rotate(-90 150 52.9999)" fill="#D9D9D9"/>
<rect x="153" y="52.9999" width="5" height="1" transform="rotate(-90 153 52.9999)" fill="#D9D9D9"/>
<rect x="156" y="52.9999" width="5" height="1" transform="rotate(-90 156 52.9999)" fill="#D9D9D9"/>
<rect x="159" y="52.9999" width="5" height="1" transform="rotate(-90 159 52.9999)" fill="#D9D9D9"/>
<rect x="144" y="44.9999" width="5" height="19" rx="2.5" transform="rotate(-90 144 44.9999)" fill="#D9D9D9"/>
<rect x="145" y="43.9999" width="3" height="17" rx="1.5" transform="rotate(-90 145 43.9999)" fill="#454545"/>
<rect x="147" y="44.9999" width="5" height="1" transform="rotate(-90 147 44.9999)" fill="#D9D9D9"/>
<rect x="150" y="44.9999" width="5" height="1" transform="rotate(-90 150 44.9999)" fill="#D9D9D9"/>
<rect x="153" y="44.9999" width="5" height="1" transform="rotate(-90 153 44.9999)" fill="#D9D9D9"/>
<rect x="156" y="44.9999" width="5" height="1" transform="rotate(-90 156 44.9999)" fill="#D9D9D9"/>
<rect x="159" y="44.9999" width="5" height="1" transform="rotate(-90 159 44.9999)" fill="#D9D9D9"/>
<rect x="144" y="60.9999" width="5" height="19" rx="2.5" transform="rotate(-90 144 60.9999)" fill="#D9D9D9"/>
<rect x="145" y="59.9999" width="3" height="17" rx="1.5" transform="rotate(-90 145 59.9999)" fill="#454545"/>
<rect x="147" y="60.9999" width="5" height="1" transform="rotate(-90 147 60.9999)" fill="#D9D9D9"/>
<rect x="150" y="60.9999" width="5" height="1" transform="rotate(-90 150 60.9999)" fill="#D9D9D9"/>
<rect x="153" y="60.9999" width="5" height="1" transform="rotate(-90 153 60.9999)" fill="#D9D9D9"/>
<rect x="156" y="60.9999" width="5" height="1" transform="rotate(-90 156 60.9999)" fill="#D9D9D9"/>
<rect x="159" y="60.9999" width="5" height="1" transform="rotate(-90 159 60.9999)" fill="#D9D9D9"/>
<circle cx="158" cy="65.9999" r="3" transform="rotate(-90 158 65.9999)" fill="#D9D9D9"/>
<circle cx="158" cy="34.9999" r="3" transform="rotate(-90 158 34.9999)" fill="#D9D9D9"/>
<rect x="96" y="55.9999" width="10" height="12" transform="rotate(-90 96 55.9999)" fill="#2A2A2A"/>
<circle cx="102" cy="50.9999" r="4" transform="rotate(-90 102 50.9999)" fill="#828282"/>
<circle cx="102" cy="50.9999" r="3" transform="rotate(-90 102 50.9999)" fill="#3A3A3A"/>
<ellipse cx="104" cy="50.9999" rx="3" ry="4" transform="rotate(-90 104 50.9999)" fill="#D9D9D9"/>
<rect x="97" y="58.9999" width="3.2" height="4" transform="rotate(-90 97 58.9999)" fill="#9B9B9B"/>
<rect x="97" y="46.1998" width="3.2" height="4" transform="rotate(-90 97 46.1998)" fill="#9B9B9B"/>
<rect x="103" y="58.9999" width="3.2" height="5" transform="rotate(-90 103 58.9999)" fill="#9B9B9B"/>
<rect x="103" y="46.1998" width="3.2" height="5" transform="rotate(-90 103 46.1998)" fill="#9B9B9B"/>
<rect x="108" y="57.9999" width="5.6" height="4" transform="rotate(-90 108 57.9999)" fill="#797979"/>
<rect x="108" y="49.5999" width="5.6" height="4" transform="rotate(-90 108 49.5999)" fill="#797979"/>
<rect x="109" y="55.9999" width="2" height="2" transform="rotate(-90 109 55.9999)" fill="#ABABAB"/>
<rect x="109" y="47.9999" width="2" height="2" transform="rotate(-90 109 47.9999)" fill="#ABABAB"/>
<path d="M92 57.9999C90.3431 57.9999 89 56.6567 89 54.9999L89 46.9999C89 45.343 90.3431 43.9999 92 43.9999L95 43.9999L95 57.9999L92 57.9999Z" fill="#A6A6A6"/>
<circle cx="92.5" cy="54.4999" r="1.5" transform="rotate(-90 92.5 54.4999)" fill="#D9D9D9"/>
<circle cx="92.5" cy="47.4999" r="1.5" transform="rotate(-90 92.5 47.4999)" fill="#D9D9D9"/>
<path d="M42 58.9999C43.6569 58.9999 45 60.343 45 61.9999L45 63.9999C45 65.6567 43.6569 66.9999 42 66.9999L37 66.9999L37 58.9999L42 58.9999Z" fill="#C3C6D2"/>
<path d="M38 59.9999C39.1046 59.9999 40 60.8953 40 61.9999L40 63.9999C40 65.1044 39.1046 65.9999 38 65.9999L36 65.9999L36 59.9999L38 59.9999Z" fill="#898E95"/>
<rect x="38" y="60.9999" width="1" height="6" transform="rotate(90 38 60.9999)" fill="#736750"/>
<rect x="38" y="63.9999" width="1" height="6" transform="rotate(90 38 63.9999)" fill="#736750"/>
<path d="M42 34.9999C43.6569 34.9999 45 36.343 45 37.9999L45 39.9999C45 41.6567 43.6569 42.9999 42 42.9999L37 42.9999L37 34.9999L42 34.9999Z" fill="#C3C6D2"/>
<path d="M38 35.9999C39.1046 35.9999 40 36.8953 40 37.9999L40 39.9999C40 41.1044 39.1046 41.9999 38 41.9999L36 41.9999L36 35.9999L38 35.9999Z" fill="#898E95"/>
<rect x="38" y="36.9999" width="1" height="6" transform="rotate(90 38 36.9999)" fill="#736750"/>
<rect x="38" y="39.9999" width="1" height="6" transform="rotate(90 38 39.9999)" fill="#736750"/>
</svg>
